<?xml version="1.0" encoding="UTF-8" standalone="no"?>
<!-- Created with Inkscape (http://www.inkscape.org/) -->

<svg
   width="1920"
   height="1080"
   viewBox="0 0 1920 1080"
   version="1.1"
   id="svg5"
   xml:space="preserve"
   inkscape:version="1.3 (0e150ed6c4, 2023-07-21)"
   sodipodi:docname="ArchLock.svg"
   inkscape:export-filename="Arch5.png"
   inkscape:export-xdpi="96"
   inkscape:export-ydpi="96"
   xmlns:inkscape="http://www.inkscape.org/namespaces/inkscape"
   xmlns:sodipodi="http://sodipodi.sourceforge.net/DTD/sodipodi-0.dtd"
   xmlns="http://www.w3.org/2000/svg"
   xmlns:svg="http://www.w3.org/2000/svg"><sodipodi:namedview
     id="namedview7"
     pagecolor="#ffffff"
     bordercolor="#000000"
     borderopacity="0.25"
     inkscape:showpageshadow="2"
     inkscape:pageopacity="0.0"
     inkscape:pagecheckerboard="0"
     inkscape:deskcolor="#d1d1d1"
     inkscape:document-units="px"
     showgrid="false"
     inkscape:zoom="0.53096243"
     inkscape:cx="1087.6476"
     inkscape:cy="440.70915"
     inkscape:window-width="1904"
     inkscape:window-height="1064"
     inkscape:window-x="0"
     inkscape:window-y="0"
     inkscape:window-maximized="1"
     inkscape:current-layer="layer1"
     showguides="false" /><defs
     id="defs2" /><g
     inkscape:label="Layer 1"
     inkscape:groupmode="layer"
     id="layer1"><rect
       style="fill:#353e43;fill-opacity:1"
       id="rect2603"
       width="1920"
       height="1080"
       x="0"
       y="0" /><g
       id="g61"
       transform="translate(-19.113287,36.945531)"><path
         style="fill:#59c99c;fill-opacity:1;stroke-width:3.25012"
         d="m 775.57851,-11.842122 5.64788,3.2904998 3.36446,6.28645 3.36477,6.28732 -5.4174,12.2619302 -5.41718,12.26249 -1.55234,72.698562 -1.55277,72.69839 56.4248,56.49381 56.42444,56.49417 91.05299,1.8e-4 91.05274,-1.3e-4 136.4773,136.50406 136.4777,136.50454 126.4119,-2e-4 126.4122,-1.1e-4 31.8717,31.31345 31.8717,31.31339 85.4898,-1.5774 85.4902,-1.57683 12.5853,-5.36008 12.5846,-5.36029 4.6261,1.1e-4 4.626,-10e-5 7.9774,7.97723 7.9776,7.97751 10e-5,9.66624 10e-5,9.66611 -5.1023,5.10238 -5.1026,5.10257 -7.9229,1.98841 -7.9231,1.98813 -11.6865,-5.54541 -11.6866,-5.54539 -90.4103,-1.80314 -90.41,-1.80281 -28.6282,-28.7615 -28.628,-28.76143 -126.837,1.2e-4 -126.8374,-1.9e-4 -136.4773,-136.50415 -136.4775,-136.50442 -94.29826,4.1e-4 -94.29903,-3.4e-4 -63.91302,-64.18985 -63.91309,-64.19057 -1.35567,-76.37773 -1.35611,-76.378052 -4.95522,-13.00056 -4.95492,-13.0002602 2.63129,-7.10057 2.63122,-7.10032 6.46996,-3.4625798 6.46985,-3.46248 7.52648,0.0976 7.52652,0.0975 z"
         id="path49" /><path
         style="fill:#59c99c;fill-opacity:1;stroke-width:3.25012"
         d="m 348.91252,-11.467002 6.62674,7.1133498 -5e-5,3.86537999 -1.2e-4,3.86525001 -5.32171,12.5851602 -5.32156,12.58502 -1.61474,45.96415 -1.6147,45.963912 -74.32388,74.25689 -74.32372,74.25673 1.7e-4,70.18385 -2.1e-4,70.18326 -21.93834,21.13752 -21.93831,21.1379 -7.4784,3.97445 -7.47805,3.97472 -22.83576,1.91399 -22.834666,1.91507 -10.014478,6.8201 -10.014003,6.82042 -6.578392,8.88052 -6.578235,8.88057 -1.460947,63.74543 -1.46079,63.74509 24.570433,24.87804 24.570438,24.87822 1.04564,49.40758 1.04546,49.40698 4.05972,4.05972 4.06031,4.06031 -10e-6,10.59853 1.1e-4,10.59921 -7.11133,6.62875 -7.111116,6.62854 -7.074399,-8e-5 -7.074624,-4.5e-4 -8.371529,-6.58495 -8.371381,-6.58509 -1.870128,-5.89187 -1.870078,-5.8921 5.080329,-12.15738 5.079502,-12.15792 1.932643,-31.72225 1.932664,-31.72245 -2.347361,-12.51315 -2.347849,-12.51346 -22.487523,-23.19157 -22.488011,-23.19188 3.82e-4,-71.53597 -3.45e-4,-71.53623 22.496613,-21.71846 22.496747,-21.7186 11.525075,-4.81592 11.525307,-4.81537 16.516602,1.2e-4 16.51669,2.2e-4 9.42046,-4.87234 9.42117,-4.8715 9.10618,-11.93128 9.10559,-11.93188 1.08551,-68.81094 1.08503,-68.81185 74.4874,-74.42041 74.48722,-74.42022 10e-5,-35.907712 1.4e-4,-35.90714 -4.87529,-18.71729 -4.87533,-18.7172502 5e-5,-5.83784 8e-5,-5.83788 5.94266,-5.3796898 5.94277,-5.3798 11.80555,1.1e-4 11.80519,-1.4e-4 z"
         id="path51" /><path
         style="fill:#59c99c;fill-opacity:1;stroke-width:3.25012"
         d="m 416.87216,-13.307752 7.52694,5.2720398 -1.66381,11.79118 -1.66385,11.7912202 -3.37306,14.62579 -3.37372,14.62507 -0.14127,68.285622 -0.14111,68.28607 -60.12791,60.06087 -60.12767,60.06064 -10e-4,102.4118 -0.001,102.41202 -45.80039,43.58909 -45.80012,43.58903 1.26134,44.16436 1.26194,44.16455 6.26276,10.30559 6.26301,10.30611 -5.50656,11.54692 -5.50633,11.54709 -8.45813,2.12298 -8.4581,2.12296 -7.93384,-3.61506 -7.93351,-3.6148 -3.73052,-8.18764 -3.73109,-8.18865 5.40414,-22.38805 5.40369,-22.38842 -2.6e-4,-37.76117 2.8e-4,-37.76035 45.50156,-44.26112 45.502,-44.26059 -3.2e-4,-102.80373 1.3e-4,-102.8034 60.42496,-60.09647 60.42474,-60.09626 -1.59053,-69.87825 -1.58941,-69.877222 -5.21005,-14.22161 -5.21033,-14.2221502 2.6e-4,-2.98891001 -3.8e-4,-2.98944999 7.97773,-7.9777298 7.97752,-7.97752 9.17529,3.4e-4 9.1746,-3.6e-4 z"
         id="path52" /><path
         style="fill:#59c99c;fill-opacity:1;stroke-width:3.25012"
         d="m 563.13329,-13.304322 7.5323,5.2759298 -1.7537,10.16203 -1.75334,10.1622402 -3.23675,16.2507 -3.23692,16.25049 -0.19387,178.858542 -0.19358,178.85905 19.50074,19.29698 19.50104,19.29728 -10e-6,187.09507 5e-5,187.0952 17.06337,16.77048 17.06297,16.77008 9.14941,3.43183 9.14975,3.43208 44.06982,-2e-5 44.06944,-2.5e-4 59.26484,57.92917 59.26445,57.92894 15.79432,7.42425 15.79402,7.42396 4.06144,5.33729 4.06121,5.33709 0.1033,8.32481 0.10331,8.325 -6.39021,6.8593 -6.3901,6.8593 -6.76926,2.1486 -6.76915,2.1487 -8.17149,-5.3541 -8.17166,-5.3544 -6.16289,-14.3774 -6.1627,-14.37751 -54.23236,-55.29096 -54.23193,-55.29052 -50.78086,-6e-5 -50.78049,1.5e-4 -29.99904,-30.12518 -29.99977,-30.12506 1.6e-4,-185.29753 10e-6,-185.29816 -19.00677,-18.8077 -19.00715,-18.80809 -2.08839,-185.84786 -2.08868,-185.848162 -3.48092,-14.6258 -3.48053,-14.6254 -1.74671,-8.6159402 -1.74665,-8.616 6.82198,-6.8219798 6.82196,-6.82196 10.65192,-3.9e-4 10.65229,3e-5 z"
         id="path53" /><path
         style="fill:#59c99c;fill-opacity:1;stroke-width:3.25012"
         d="m 620.42485,-16.003222 6.50027,1.34428 5.95572,5.2861698 5.95652,5.28694 -1.71318,9.81626 -1.71322,9.8159102 -3.23701,16.25038 -3.23666,16.25082 -0.19391,144.665512 -0.19335,144.66574 56.87712,56.80683 56.87752,56.8078 -5e-5,156.14252 -8e-5,156.14275 18.7822,18.58653 18.78249,18.58682 98.60383,-3e-4 98.60418,1.4e-4 36.39396,34.98699 36.3942,34.98729 18.0139,15.3898 18.0138,15.38965 5.4855,4.7e-4 5.4845,-5.8e-4 7.9779,7.97782 7.9773,7.97734 2e-4,11.01983 10e-5,11.0194 -5.6876,4.99462 -5.688,4.99419 -7.472,2.27899 -7.4716,2.27928 -8.1719,-5.35448 -8.1713,-5.35405 -6.185,-14.42906 -6.1848,-14.42913 -42.8411,-43.86352 -42.84112,-43.86363 -99.39799,-4.3e-4 -99.39727,2.2e-4 -28.50319,-28.3711 -28.50279,-28.3707 8e-5,-156.10847 2.4e-4,-156.10862 -56.44554,-56.37652 -56.44549,-56.37577 -1.64057,-154.84714 -1.64046,-154.847432 -5.58817,-15.93202 -5.58804,-15.9319802 3.29147,-7.22458 3.29157,-7.2244898 9.19314,-3.04026 9.19259,-3.04109 z"
         id="path54" /><path
         style="fill:#59c99c;fill-opacity:1;stroke-width:3.25012"
         d="m 699.47855,-13.485012 10.0983,4.2463298 1.89622,7.55489 1.89602,7.55509 -5.49204,12.9625902 -5.49163,12.96276 -1.46765,95.878762 -1.46759,95.87868 60.4288,60.09436 60.4288,60.09435 2.4e-4,74.69169 -4.8e-4,74.69104 18.58722,18.78229 18.58652,18.7822 120.37086,1.8e-4 120.37046,-2.6e-4 138.1162,138.34738 138.116,138.34659 134.8803,-1.29747 134.88,-1.29788 13.1995,-5.05863 13.1998,-5.05838 9.8775,4.15326 9.8777,4.15335 2.1111,5.50211 2.1115,5.50248 -10e-5,7.73278 2e-4,7.73303 -7.1113,6.62871 -7.1146,6.62533 -10.1123,2.5e-4 -10.1129,-3e-4 -4.0586,-4.06283 -4.0588,-4.0631 -140.4091,-0.9695 -140.4086,-0.96912 -74.7533,-73.89546 -74.7528,-73.89507 -63.8686,-62.45345 -63.8687,-62.45332 H 974.13514 l -119.8278,-1.5e-4 -29.99917,-30.12448 -29.99908,-30.12495 -2.7e-4,-74.72516 1.5e-4,-74.72439 -60.1282,-60.06117 -60.12789,-60.06085 -0.14107,-91.03606 -0.14129,-91.036612 -3.17695,-14.62611 -3.1763,-14.62538 -1.87839,-11.3931002 -1.87866,-11.39344 6.00914,-5.21148 6.00893,-5.2114698 6.85217,-1.65832 6.85189,-1.65885 z"
         id="path55" /><path
         style="fill:#59c99c;fill-opacity:1;stroke-width:3.25012"
         d="m 489.95908,-15.112292 9.18663,7.2262398 -1.69055,10.09078 -1.69059,10.0908202 -3.34343,14.62552 -3.34338,14.62566 -0.14151,181.796222 -0.1413,181.79659 -55.25519,55.57699 -55.25524,55.57701 1.4e-4,152.22814 -2.1e-4,152.22788 -28.81513,30.14148 -28.81488,30.14142 -2.30213,9.27061 -2.30165,9.27089 -6.82472,7.314 -6.82472,7.314 -9.33139,10e-5 h -9.33169 l -7.97746,-7.97766 -7.97727,-7.97727 -3.9e-4,-5.92528 -1e-4,-5.9248 4.98811,-7.12079 4.98783,-7.12128 13.70048,-6.12136 13.70028,-6.12175 23.5637,-21.91084 23.56284,-21.91136 -4e-5,-153.30018 3.8e-4,-153.29962 55.59268,-55.21751 55.59292,-55.21753 -2.00688,-178.75696 -2.00696,-178.757092 -3.35559,-16.25047 -3.35583,-16.2506302 -1.73997,-8.19844001 -1.73993,-8.19846999 6.16018,-5.5771098 6.16019,-5.57712 9.58828,-1.91792 9.58851,-1.91756 z"
         id="path57" /></g><path
       id="path445"
       style="fill:#59c99c;fill-opacity:1;stroke-width:0.997873"
       d="m 2482.7788,379.65791 203.4275,297.54768 74.3232,23.13649 -203.4274,-297.54768 z m 139.0666,27.6363 a 133.61884,133.61884 0 0 0 -44.7729,8.06955 l 27.1893,39.50247 a 87.999658,87.999658 0 0 1 17.5836,-1.95373 87.999658,87.999658 0 0 1 87.9996,88.00113 87.999658,87.999658 0 0 1 -13.9514,47.08533 l 27.3954,39.80036 a 133.61884,133.61884 0 0 0 32.1761,-86.88569 133.61884,133.61884 0 0 0 -133.6197,-133.61942 z m -100.411,45.54555 a 133.61884,133.61884 0 0 0 -33.2081,88.07387 133.61884,133.61884 0 0 0 133.6191,133.6177 133.61884,133.61884 0 0 0 46.2419,-8.61861 L 2640.988,626.5419 a 87.999658,87.999658 0 0 1 -19.1426,2.37114 87.999658,87.999658 0 0 1 -87.9992,-87.99941 87.999658,87.999658 0 0 1 14.8816,-48.41723 z" /><g
       id="g62"
       transform="matrix(1.620349,0,0,1.620349,-1912.6483,-905.59979)"><path
         sodipodi:type="star"
         style="fill:#1f282e;fill-opacity:1"
         id="path5221"
         inkscape:flatsided="true"
         sodipodi:sides="6"
         sodipodi:cx="377.25253"
         sodipodi:cy="1373.7869"
         sodipodi:r1="120.13237"
         sodipodi:r2="104.03768"
         sodipodi:arg1="0.52359878"
         sodipodi:arg2="1.0471976"
         inkscape:rounded="0"
         inkscape:randomized="0"
         d="m 481.29022,1433.8531 -104.03769,60.0661 -104.03768,-60.0662 0,-120.1323 104.03768,-60.0662 104.03769,60.0662 z"
         transform="matrix(0.76576213,-1.3263389,1.3263389,0.76576213,-606.22922,118.315)" /><g
         id="g1"
         transform="matrix(0.69935759,0,0,0.69935759,832.35747,266.3899)"><path
           id="path6136"
           style="fill:#9f789a;fill-opacity:1;stroke-width:0.60868"
           d="m 1056.3138,439.56117 c -13.8494,19.1676 -34.6961,45.0895 -50.7472,69.80518 -16.83771,25.92699 -22.59002,59.5935 -8.27069,86.99197 11.71739,22.42018 33.34489,39.38574 67.23979,40.57445 33.8948,-1.18871 55.5222,-18.15427 67.2398,-40.57445 14.3193,-27.39847 8.5674,-61.06498 -8.2707,-86.99197 -16.0512,-24.71568 -36.8979,-50.63758 -50.7473,-69.80518 0,9.92652 -0.038,14.38383 -0.038,27.82435 11.6585,18.2268 23.2374,32.26655 34.464,48.38502 15.4915,22.24129 22.3919,51.37601 9.7283,75.34033 -9.243,17.49148 -28.1937,30.33565 -52.3759,30.605 -24.1825,-0.26935 -43.1329,-13.11352 -52.3759,-30.605 -12.66356,-23.96432 -5.7631,-53.09904 9.7282,-75.34033 11.2263,-16.11847 22.8053,-30.15822 34.4637,-48.38502 0,-13.44052 -0.038,-17.89783 -0.038,-27.82435 z" /><path
           d="m 882.91618,440.92594 c -8.66617,21.23939 -13.8901,35.13239 -23.53517,55.74234 5.91414,6.26996 13.1724,13.56766 24.93378,21.81407 -12.67369,-5.21483 -21.28492,-10.45094 -27.77994,-15.88469 -12.34522,25.75484 -31.68415,62.45015 -70.93071,132.97034 30.87541,-17.8064 54.76019,-28.78337 77.07292,-32.97956 -0.95772,-4.11713 -1.50211,-8.56873 -1.45954,-13.21189 l 0.0364,-0.98824 c 0.48655,-19.76462 10.77029,-34.9621 22.94832,-33.92827 12.17802,1.03384 21.64368,17.89763 21.15422,37.66226 a 55.827473,55.827473 0 0 1 -1.2436,10.61514 c 22.04512,4.31172 45.70173,15.26436 76.13025,32.83056 l -16.48078,-30.48618 c -8.05776,-6.24257 -16.45932,-14.3704 -33.59989,-23.17022 11.7828,3.062 20.22084,6.59226 26.75832,10.54214 -51.99605,-96.81627 -56.21046,-109.67847 -74.04118,-151.5278 z"
           fill="#1793d1"
           fill-rule="evenodd"
           id="path14568"
           style="fill:#0070ab;fill-opacity:1;stroke-width:3.04072" /></g><text
         xml:space="preserve"
         style="font-size:9.22361px;fill:#a5a9ab;fill-opacity:1;stroke-width:0.768634"
         x="49.478222"
         y="1737.266"
         id="text1"
         transform="rotate(-60)"><tspan
           sodipodi:role="line"
           id="tspan1"
           x="49.478222"
           y="1737.266"
           style="font-style:normal;font-variant:normal;font-weight:normal;font-stretch:normal;font-size:147.578px;font-family:'GohuFont Nerd Font';-inkscape-font-specification:'GohuFont Nerd Font, Normal';font-variant-ligatures:normal;font-variant-caps:normal;font-variant-numeric:normal;font-variant-east-asian:normal;fill:#a5a9ab;fill-opacity:1;stroke-width:0.768634">\</tspan></text></g><path
       style="fill:#59c99c;fill-opacity:1;stroke-width:2.33259"
       d="m 3661.8949,2321.7519 4.782,-1.2659 22.3217,-19.463 22.3219,-19.4632 38.0109,-37.889 38.0112,-37.8891 71.7483,0.027 71.7482,0.027 108.1948,108.1947 108.1945,108.1946 17.3893,-0.4848 17.3892,-0.4848 99.4632,98.369 99.4631,98.3693 4.1225,-10e-4 4.1221,-9e-4 6.148,6.1479 6.1484,6.1479 -0.9531,7.9762 -0.952,7.9763 -5.2419,3.1484 -5.2409,3.1485 -5.7987,0.3007 -5.7983,0.3007 -5.4953,-7.7183 -5.495,-7.7181 -6.8419,-9.6523 -6.8419,-9.6523 -90.6936,-90.9348 -90.694,-90.9347 -16.9036,1.2397 -16.9038,1.2397 -108.3687,-108.3687 -108.3686,-108.3689 -61.8519,0.031 -61.8519,0.031 -51.8688,52.0108 -51.8675,52.0126 -5.7432,9.1012 -5.7436,9.1013 -3.4858,5.2591 -3.486,5.2591 -6.9243,-1e-4 -6.9242,2e-4 -5.7728,-5.7729 -5.7728,-5.7729 v -6.5976 -6.5975 l 3.7605,-3.6617 3.7606,-3.6616 z m -236.3908,296.3881 7.4038,0.2313 1.7361,1.7358 1.7354,1.7357 41.2714,1.2278 41.2715,1.2276 155.6319,0.2357 155.632,0.2354 58.5865,-58.5335 58.5863,-58.5337 26.0934,-1.1214 26.0934,-1.1216 38.2245,38.2242 38.2238,38.224 59.3441,-0.034 59.3433,-0.034 35.5568,35.4016 35.5568,35.4018 22.4577,19.7877 22.4583,19.7878 h 3.7722 l 3.7721,2e-4 4.6933,4.6932 4.6935,4.6933 v 8.0969 l 4e-4,8.097 -3.2477,3.2473 -3.2469,3.2472 -9.6165,0.8279 -9.6167,0.8279 -5.8079,-7.6703 -5.8082,-7.67 -16.5481,-19.7386 -16.5481,-19.7386 -34.5581,-34.7498 -34.5585,-34.7496 -60.7301,0.034 -60.7305,0.034 -37.8041,-36.7156 -37.804,-36.7155 -6.3831,-1.8638 -6.3834,-1.8638 -10.4341,-0.2868 -10.4344,-0.2867 -59.3434,59.3433 -59.3433,59.3434 -176.2135,0.5188 -176.2138,0.5186 -23.673,1.4409 -23.673,1.4406 -2.7003,2.7001 -2.6997,2.6998 h -6.5977 -6.5977 l -5.7728,-5.7729 -5.7732,-5.7728 v -6.5976 -6.5976 l 4.6609,-4.6607 4.6606,-4.6607 z m 540.4013,-513.9173 8.4657,1e-4 3.08,3.08 3.0799,3.0803 20.3604,1.3918 20.3597,1.3917 16.3733,-0.9452 16.3729,-0.9454 81.9235,81.9231 81.9232,81.9233 -0.1123,54.5055 -0.1122,54.5053 99.6301,98.6173 99.6305,98.6172 4.7793,0.4429 4.7793,0.443 5.6177,6.6553 5.6174,6.6553 -1.1201,7.6095 -1.1197,7.6098 -6.1422,3.0708 -6.1419,3.071 -7.8018,-1.132 -7.8028,-1.1319 -2.9731,-7.677 -2.9735,-7.6772 -100.1604,-101.2641 -100.1604,-101.2641 0.034,-55.8807 0.037,-55.8805 -77.7171,-77.717 -77.717,-77.7169 -29.2587,0.5362 -29.2588,0.5364 -8.664,3.6001 -8.6647,3.6001 -5.4521,0.321 -5.4514,0.3211 -4.5102,-4.5097 -4.51,-4.5098 -0.5898,-6.363 -0.5901,-6.3631 4.2371,-6.2652 4.2375,-6.2651 z m 300.3138,-259.5427 5.5154,0.415 2.9507,0.8217 2.9504,0.8218 4.4021,9.9688 4.4024,9.9689 101.659,102.8659 101.6587,102.8658 0.1327,28.7309 0.1326,28.7308 -18.643,18.643 -18.6427,18.643 -3.0255,7.5897 -3.0252,7.5896 0.2653,12.8857 0.2653,12.8857 4.915,7.8844 4.915,7.8844 18.9397,19.0186 18.9396,19.0187 -0.1497,90.8445 -0.1496,90.8444 15.6559,14.2215 15.6563,14.2214 7.2408,1.5083 7.2413,1.5082 3.8245,5.9778 3.8248,5.9777 -0.3333,3.5957 -0.3333,3.5957 -3.195,5.336 -3.1949,5.336 -9.5926,0.826 -9.5926,0.8259 -3.5398,-3.5894 -3.5395,-3.5894 -4.2208,-8.9744 -4.2208,-8.9745 -13.9586,-14.1034 -13.9586,-14.1035 0.034,-90.6942 0.034,-90.6941 -23.9601,-23.96 -23.9597,-23.96 0.065,-30.5122 0.065,-30.5122 19.4311,-19.4312 19.4311,-19.4313 2.1123,-6.7957 2.1122,-6.7958 -0.1972,-14.5398 -0.1973,-14.5397 -100.2819,-98.8422 -100.2811,-98.842 -10.9712,-5.5229 -10.9712,-5.5228 -1.0881,-7.1588 -1.0888,-7.1587 6.0273,-7.0092 6.0266,-7.0091 z m -386.6078,475.2277 27.504,0.7546 83.6171,83.6172 83.617,83.617 50.8097,-0.04 50.8099,-0.04 84.3392,83.2327 84.3388,83.2326 4.1225,-0 4.1222,-10e-4 6.148,6.148 6.148,6.1479 -0.9527,7.9762 -0.9528,7.9763 -5.1748,3.2148 -5.1749,3.2148 -8.1855,-0.4663 -8.1851,-0.4664 -3.434,-5.1086 -3.4344,-5.1087 -4.8514,-8.3434 -4.8517,-8.3433 -78.3269,-78.4056 -78.3266,-78.4056 -51.0916,0.04 -51.0909,0.04 -83.3429,-83.3426 -83.3426,-83.3426 -16.1811,-1.0809 -16.181,-1.0809 -62.3492,62.3492 -62.3495,62.3493 0.668,22.9103 0.668,22.9104 3.9712,10.2721 3.9718,10.2719 -1.0827,6.1452 -1.0827,6.1451 -3.469,3.469 -3.4691,3.469 -7.4035,-0.2309 -7.4038,-0.2313 -4.5378,-4.538 -4.5385,-4.538 -1.4564,-4.8118 -1.4569,-4.8117 4.8045,-8.3456 4.8048,-8.3458 0.68,-30.239 0.6802,-30.2389 65.1754,-65.1755 65.1754,-65.1756 z m 335.721,-339.3894 8.097,10e-5 1.5228,1.5229 1.5232,1.523 3.5547,8.6566 3.5542,8.6567 15.1181,17.0795 15.1178,17.0795 7.5419,5.159 7.5416,5.159 23.1815,0.3572 23.1815,0.3573 35.8721,35.872 35.8717,35.8717 0.4602,19.4281 0.4599,19.4282 -2.1497,6.7577 -2.1503,6.7579 -8.2215,8.2215 -8.2215,8.2215 -2.9014,6.3848 -2.9017,6.3848 -0.1497,17.17 -0.1497,17.1702 34.7065,34.7065 34.7064,34.7064 -0.1565,79.3028 -0.1564,79.3029 24.6845,23.2771 24.6846,23.2771 7.4868,1.5595 7.4865,1.5596 3.7888,6.8284 3.7888,6.8285 -2.4422,6.9619 -2.4426,6.9617 -8.1286,2.8795 -8.1293,2.8794 -5.5814,-3.342 -5.5817,-3.3417 -2.9326,-7.2066 -2.9331,-7.2063 -24.9893,-26.5031 -24.989,-26.503 0.034,-78.8096 0.034,-78.8098 -35.5136,-35.5134 -35.5135,-35.5136 0.2211,-25.3434 0.221,-25.3434 1.7028,-5.2128 1.702,-5.2127 11.278,-14.4747 11.2773,-14.4748 v -9.9584 -9.9587 l -7.5109,-10.0024 -7.511,-10.0025 -24.4287,-24.6697 -24.4288,-24.6698 -23.1683,-0.5951 -23.1682,-0.5953 -7.5191,-5.3874 -7.5191,-5.3874 -14.077,-13.9623 -14.0777,-13.9622 -8.3763,-4.8189 -8.3766,-4.8189 -6.7936,-5.1737 -6.7942,-5.1738 1.1445,-6.4953 1.1446,-6.4953 4.6562,-4.6561 4.6561,-4.6562 z m -791.7089,791.7088 h 8.0976 l 1.5225,1.5228 1.5232,1.5231 3.6847,9.0885 3.685,9.0883 31.0588,32.7171 31.0591,32.7168 22.7298,0.088 22.7295,0.088 34.6891,-34.6889 34.6887,-34.6887 140.1839,0.014 140.1842,0.014 75.0697,-75.0699 75.0704,-75.0702 64.9529,0.1976 64.9536,0.198 44.1912,42.4133 44.1916,42.4133 7.7878,2.6037 7.7878,2.604 3.9453,3.9449 3.9446,3.945 v 8.0972 8.0969 l -3.2473,3.2472 -3.247,3.2473 -9.6776,0.8333 -9.678,0.8332 -5.732,-7.6903 -5.7317,-7.6905 -6.6698,-9.8243 -6.6694,-9.8243 -35.3813,-35.5791 -35.3813,-35.5792 -55.2542,0.036 -55.2542,0.036 -74.2119,74.2123 -74.2122,74.2121 -140.1842,-0.014 -140.1839,-0.014 -35.5003,35.5001 -35.4999,35.5001 -32.1622,-0.061 -32.1612,-0.061 -30.5241,-30.4446 -30.5237,-30.4447 -8.3763,-4.8189 -8.3762,-4.8189 -6.7943,-5.1736 -6.7936,-5.1738 1.1442,-6.4953 1.1442,-6.4953 4.6562,-4.6561 4.6562,-4.6563 z m -133.1941,198.2047 5.7382,-2.7875 12.2024,4.6061 12.2022,4.606 54.6073,0.6299 54.6069,0.6301 35.0153,35.0149 35.0149,35.0152 22.3768,0.3936 22.377,0.3938 45.5065,-45.5065 45.5066,-45.5062 161.6279,0.01 161.6279,0.01 28.0904,-28.0903 28.0901,-28.0902 22.2641,0.085 22.2638,0.086 30.5601,30.5602 30.5602,30.5601 38.3608,-0.3998 38.3609,-0.3998 13.6774,-1.5073 13.6769,-1.5072 2.5337,-2.5338 2.5337,-2.5338 6.3634,-0.5901 6.3629,-0.5902 6.2651,4.2373 6.2653,4.2371 v 8.4657 8.4657 l -3.9762,3.976 -3.9759,3.976 -7.7643,0.9275 -7.7647,0.9273 -2.9467,-2.9468 -2.9469,-2.9468 -14.941,-1.1925 -14.9409,-1.1927 -42.5075,-0.3771 -42.5076,-0.3768 -30.2798,-29.2549 -30.2799,-29.2547 -7.3439,-1.5252 -7.344,-1.5249 -7.3446,1.5254 -7.3443,1.5255 -26.9635,25.8366 -26.9631,25.8366 -160.4334,0.7445 -160.4333,0.7444 -45.6892,45.6888 -45.6885,45.6888 -32.1619,-0.06 -32.1618,-0.061 -35.6394,-35.6392 -35.6391,-35.6393 -51.7712,1.6122 -51.7712,1.6119 -10.4916,3.7822 -10.492,3.7823 -5.2112,-3.1204 -5.212,-3.1205 -2.7102,-5.658 -2.7102,-5.6583 2.9874,-6.9093 2.9868,-6.9093 z m 1448.01,-1360.0809 6.2279,0.3106 4.9072,4.6358 4.9072,4.6358 1.6837,5.56 1.6833,5.5602 -2.7582,4.6067 -2.7585,4.6073 -9.3718,3.7849 -9.3716,3.7854 -33.7329,32.2428 -33.7326,32.243 -0.9442,22.9721 -0.9443,22.9718 35.7483,35.7482 35.7476,35.748 v 136.8848 l -0.034,136.8848 74.2432,74.2429 74.2431,74.243 -0.1871,78.156 -0.187,78.156 -35.6837,37.3687 -35.6833,37.3687 -3.2071,9 -3.2076,9 -5.8483,2.8053 -5.8487,2.8052 -6.8725,-1.9311 -6.8725,-1.9311 -2.98,-6.2138 -2.9806,-6.2138 1.9524,-6.9492 1.9531,-6.9491 7.7436,-3.1033 7.7446,-3.1031 37.6357,-36.2769 37.6354,-36.2769 0.034,-67.0807 0.034,-67.0807 -75.0697,-75.07 -75.0704,-75.0697 0.034,-136.8848 v -136.8848 l -34.616,-34.6164 -34.6166,-34.6166 -0.058,-33.8112 -0.058,-33.8114 31.2969,-31.4387 31.2972,-31.4389 5.7255,-9.1191 5.7256,-9.119 4.1395,-5.8235 4.1398,-5.8232 z m 147.2336,-1.1167 4.7102,-1.2456 5.6358,2.5309 5.6354,2.5306 2.2881,7.1891 2.2881,7.1891 -2.5704,4.8881 -2.5708,4.8878 -1.4306,29.8605 -1.4303,29.8607 -0.5908,165.2206 -0.5905,165.2208 60.39,60.39 60.3903,60.39 -0.061,30.5123 -0.065,30.5121 -34.621,34.621 -34.6211,34.621 0.034,69.245 0.034,69.2451 -34.5564,34.7476 -34.5564,34.7477 -17.3315,20.0189 -17.3311,20.0191 v 3.7195 3.7196 l -4.6184,4.6183 -4.618,4.6183 -6.514,-10e-5 -6.5137,10e-5 -5.2259,-3.1291 -5.2256,-3.1289 -1.4088,-6.762 -1.4082,-6.7622 3.164,-5.2844 3.164,-5.2843 6.6463,-2.1821 6.6463,-2.1821 51.6685,-50.5941 51.6678,-50.5943 -0.1021,-69.3456 -0.102,-69.3454 34.604,-34.6041 34.6044,-34.6042 0.099,-18.9642 0.099,-18.9642 -60.9822,-60.9821 -60.9821,-60.9821 -0.4068,-182.87 -0.4072,-182.8698 -1.8374,-18.9511 -1.8374,-18.9509 -2.1327,-2.1329 -2.133,-2.1329 0.2857,-5.7459 0.2857,-5.7461 4.8677,-4.7689 4.8681,-4.7689 z m -249.7454,316.8541 8.097,1e-4 3.1514,3.1514 3.1514,3.1513 0.9272,7.7643 0.9276,7.7645 -2.312,2.312 -2.3119,2.312 -1.7987,22.2023 -1.7989,22.2021 -0.3881,101.0494 -0.3885,101.0494 47.2419,47.2416 47.2413,47.2414 -0.4103,20.2222 -0.4102,20.2221 -2.4462,7.4348 -2.4467,7.435 -6.9946,9.1028 -6.9946,9.103 -2.1881,9.2693 -2.1881,9.2693 1.9983,8.2436 1.9983,8.2437 15.6723,15.666 15.6725,15.6659 7.1882,2.2604 7.1885,2.2604 4.6956,4.6955 4.6949,4.6954 -0.2483,6.9727 -0.2449,6.9729 -3.9394,3.9394 -3.9392,3.9393 -9.6429,-10e-5 -9.6423,2e-4 -2.4939,-2.4938 -2.4935,-2.4935 -2.8331,-6.4532 -2.8333,-6.4532 -16.3046,-19.2405 -16.3046,-19.2405 -2.1952,-6.8971 -2.1953,-6.8971 0.5255,-15.7379 0.5256,-15.7379 2.4752,-7.7761 2.4748,-7.7762 5.963,-5.9631 5.9633,-5.9633 1.6966,-5.5085 1.697,-5.5085 1.2952,-12.725 1.2946,-12.7251 -47.078,-47.078 -47.0779,-47.0779 -0.5351,-98.7153 -0.535,-98.7154 -1.6562,-28.8297 -1.6561,-28.8296 -3.2191,-3.2193 -3.2194,-3.2193 1.0983,-6.2334 1.098,-6.2334 4.6562,-4.6561 4.6561,-4.6562 z m -324.2083,326.2473 7.7644,-0.9274 4.1122,4.1121 4.112,4.1123 1.3908,4.5933 1.3905,4.5933 -4.1187,9.6139 -4.1188,9.6142 -0.4177,20.5829 -0.4173,20.5829 26.5648,26.5649 26.5652,26.5652 -0.1768,43.0106 -0.1769,43.0108 38.6782,37.194 38.6776,37.194 8.8915,3.0642 8.8916,3.0641 3.1779,6.3088 3.1776,6.3085 -2.3796,6.8993 -2.3796,6.899 -8.1287,2.8795 -8.1293,2.8794 -5.6113,-3.3598 -5.6116,-3.36 -5.3868,-9.6525 -5.3867,-9.6526 -38.1861,-39.7878 -38.186,-39.7878 0.048,-40.7821 0.048,-40.7821 -26.2469,-26.2466 -26.2464,-26.2466 -0.5235,-28.5632 -0.5238,-28.5632 -3.431,-3.4309 -3.431,-3.4311 v -8.0971 -8.0969 l 3.9762,-3.9761 3.9759,-3.976 z m -580.6483,614.2214 4.5895,-0.466 11.6627,3.1819 11.6627,3.1818 48.2086,1.273 48.2089,1.273 68.2037,0.2463 68.2033,0.2466 47.8946,-47.8947 47.895,-47.895 20.3325,0.2847 20.3328,0.2847 6.7892,1.3671 6.7895,1.3668 5.8347,5.8018 5.8348,5.8017 7.8375,4.4303 7.8375,4.4306 9.6385,0.8298 9.6378,0.8299 9.694,-3.638 9.6939,-3.6379 4.9249,-4.9713 4.9252,-4.9713 1.766,-6.4807 1.7664,-6.4807 5.1833,-5.2985 5.1831,-5.2985 7.7643,0.9275 7.7644,0.9273 3.5898,3.59 3.5902,3.5901 0.2381,6.6888 0.2381,6.6888 -3.9705,6.2056 -3.9704,6.2054 -6.6184,1.3785 -6.6181,1.3786 -4.6103,4.5772 -4.6105,4.5774 -8.3328,4.7117 -8.3334,4.7115 -22.3335,0.4075 -22.3329,0.4078 -6.7663,-2.1418 -6.7661,-2.1415 -6.5722,-6.5722 -6.5721,-6.572 -6.0582,-2.7205 -6.0582,-2.7205 -13.2162,-1.3116 -13.2157,-1.3118 -48.0569,48.0572 -48.0569,48.0571 -92.5226,-0.1782 -92.5218,-0.1783 -34.3122,1.6584 -34.3119,1.6588 -2.7572,2.7569 -2.7571,2.7571 -7.4035,-0.2313 -7.4038,-0.2312 -4.5045,-4.5045 -4.5044,-4.5045 -4e-4,-8.097 4e-4,-8.0971 3.883,-3.8832 3.8834,-3.8831 z m 814.6915,-681.7282 6.2331,-1.0981 3.5928,3.6423 3.5926,3.6426 4.2211,8.9744 4.2205,8.9744 27.9815,28.1261 27.9815,28.1263 -0.1938,71.5556 -0.1939,71.5557 -18.9573,20.628 -18.9577,20.6281 -2.2201,8.2401 -2.22,8.2401 -8.6545,3.0656 -8.6545,3.0655 -5.3695,-3.2151 -5.3701,-3.2152 -2.1915,-5.8606 -2.1915,-5.8606 2.2986,-6.1465 2.2984,-6.1468 10.8409,-5.1063 10.8405,-5.1061 16.1702,-14.2025 16.1703,-14.2025 0.1836,-64.191 0.1837,-64.1908 -26.7472,-24.8662 -26.7471,-24.8662 -9.6821,-4.6802 -9.6821,-4.6801 -2.9105,-2.8625 -2.9106,-2.8624 v -6.5976 -6.5975 l 5.4058,-5.4059 5.4059,-5.4059 z m -998.8815,1096.7633 5.2256,-1.3723 35.8407,-33.4337 35.8408,-33.4335 88.3794,-88.1419 88.3793,-88.1419 55.2542,0.036 55.2546,0.036 19.8325,19.7173 19.8331,19.7174 5.5712,1.5651 5.5718,1.5651 13.0192,0.4897 13.0191,0.4895 7.1895,-1.4975 7.1895,-1.4974 23.8122,-22.5964 23.8124,-22.5964 90.4307,-0.3983 90.4301,-0.398 8.9589,-4.8282 8.9589,-4.8283 7.1079,-14.3588 7.1076,-14.3589 5.0082,-1.5163 5.0082,-1.5164 6.2116,1.0943 6.2123,1.0943 3.0062,3.0067 3.0071,3.0069 -3e-4,8.097 3e-4,8.097 -5.4885,5.3828 -5.4881,5.3827 -5.6232,0.78 -5.6235,0.7801 -7.411,7.4109 -7.4109,7.411 -11.128,3.9337 -11.1276,3.9335 -86.8998,0.079 -86.9001,0.079 -23.9543,23.9544 -23.9549,23.9547 -32.2408,0.285 -32.2408,0.285 -21.5668,-21.567 -21.5672,-21.5671 -47.0072,0.042 -47.0069,0.042 -111.2591,111.3678 -111.2588,111.3679 -9.1195,12.3228 -9.1191,12.3229 -4.2157,6.1788 -4.2157,6.179 -6.9242,-2e-4 -6.9238,2e-4 -5.7732,-5.7729 -5.7725,-5.7729 v -6.5975 -6.5976 l 3.7606,-3.6617 3.7605,-3.6616 z m 1520.051,-1365.5215 4.5365,-1.1962 4.7286,1.4318 4.7293,1.4319 4.4395,9.8756 4.4395,9.8757 57.8658,59.2412 57.8658,59.2412 0.1633,28.702 0.1632,28.7019 -82.5208,82.5207 -82.5204,82.5207 0.034,60.9942 0.034,60.9941 -70.0319,70.2001 -70.0316,70.2 -9.2004,12.2421 -9.2001,12.2422 -4.9936,7.0534 -4.9936,7.0536 -7.1089,0 -7.1082,1e-4 -5.4211,-6.4337 -5.4212,-6.4338 1.1711,-7.961 1.1711,-7.9607 10.8736,-4.7353 10.8739,-4.7352 76.5721,-75.1721 76.5718,-75.1722 -0.1429,-61.1365 -0.1428,-61.1368 82.5378,-82.538 82.5384,-82.5379 -0.102,-19.3209 -0.102,-19.321 -57.4189,-55.9349 -57.4189,-55.9349 -9.1109,-4.0844 -9.111,-4.0844 -2.2677,-4.9386 -2.2681,-4.9388 1.5266,-5.0405 1.5258,-5.0406 3.8691,-3.7701 3.8688,-3.7701 z m -1159.768,1213.4814 30.5649,0.2983 8.4464,3.4684 8.4473,3.4683 5.7181,5.7185 5.7188,5.7184 6.0221,2.7044 6.0222,2.7045 19.077,0.4506 19.0774,0.4508 33.9857,-33.9859 33.9856,-33.9858 85.9032,0.1585 85.9031,0.1585 16.4968,-18.1405 16.4967,-18.1407 4.6375,-9.9321 4.6378,-9.9322 3.9265,-2.0347 3.9269,-2.0347 7.5902,0.9068 7.5906,0.9065 3.1514,3.1513 3.151,3.1513 v 8.0972 8.0969 l -4.6562,4.6562 -4.6561,4.6561 -6.3021,1.1103 -6.3024,1.1105 -22.1877,20.298 -22.1879,20.2983 -85.261,-0.024 -85.2609,-0.024 -33.036,33.0362 -33.0364,33.0363 -27.1104,-0.1044 -27.1101,-0.1048 -8.6746,-3.5901 -8.6745,-3.59 -7.2049,-7.2046 -7.2044,-7.2045 -12.9627,-1.5983 -12.9627,-1.5983 -13.6002,1.2293 -13.5997,1.2295 -63.872,63.8721 -63.8723,63.8722 -0.4017,19.8238 -0.4024,19.8237 -20.2645,22.467 -20.2644,22.4667 -5.7263,9.1181 -5.7262,9.1181 -4.1586,5.8051 -4.1582,5.8051 -5.7221,-0.3231 -5.7222,-0.3231 -3.6422,-2.9556 -3.6422,-2.9555 -3.483,-3.8629 -3.4831,-3.8632 1.4677,-7.0472 1.4681,-7.0474 10.3654,-5.0354 10.3657,-5.0353 13.7219,-11.5403 13.7219,-11.5403 9.195,-11.6094 9.195,-11.6098 0.4013,-19.7878 0.401,-19.7878 67.5938,-67.5937 67.5931,-67.5934 z m 753.0335,-653.8367 26.6197,1.1785 186.623,186.6232 186.6234,186.6232 1.1783,26.6194 1.1785,26.6194 -187.3309,187.3308 -187.3302,187.3307 -26.6196,-1.1785 -26.6193,-1.1785 -186.6234,-186.6232 -186.623,-186.6232 -1.1786,-26.6194 -1.1786,-26.6194 187.3306,-187.3307 187.3308,-187.3308 z m -363.5654,400.9188 0.4347,11.9357 175.8362,175.9252 175.8363,175.9255 12.5671,-0.6377 12.5671,-0.6373 175.3063,-175.3061 175.3063,-175.3064 -1.2024,-13.4462 -1.2017,-13.4462 -174.4519,-174.452 -174.4522,-174.452 -12.3623,-0.1469 -12.3621,-0.1473 -176.1284,176.1281 -176.1277,176.128 z m 237.7048,-191.0035 9.2249,-7.269 15.2563,14.4325 15.2569,14.4325 4.53,2.8322 4.5299,2.8322 7.3464,-2.3383 7.3466,-2.3383 3.7766,-3.8095 3.7766,-3.8095 1.8918,-22.8491 1.8919,-22.849 12.4531,-2.3911 12.4536,-2.3911 22.1814,-0.5368 22.1815,-0.537 14.3546,1.6108 14.3542,1.6109 3.8395,3.839 3.8384,3.8388 1.9956,20.1389 1.9956,20.139 3.9956,3.9956 3.9957,3.9957 7.0646,2.2486 7.0647,2.2486 4.7892,-2.7653 4.7888,-2.7655 14.4239,-14.3776 14.4236,-14.3777 5.7923,3.2798 5.7915,3.2798 31.3387,31.3385 31.3387,31.3384 3.2796,5.7919 3.28,5.7919 -16.4627,16.4624 -16.4624,16.4626 v 6.7292 6.7294 l 2.6524,5.9076 2.6534,5.9076 7.0878,1.5384 7.0878,1.5384 17.2859,1.3055 17.2859,1.3056 1.2554,1.2555 1.2555,1.2556 1.5531,13.6313 1.553,13.6313 0.4347,17.2209 0.4351,17.2211 -2.1422,19.9483 -2.1422,19.9484 -1.3483,1.302 -1.3483,1.302 -19.9278,1.5145 -19.9274,1.5145 -5.1741,1.8451 -5.1746,1.8451 -3.1238,8.7658 -3.1239,8.7657 4.3416,7.6811 4.3415,7.6809 12.6719,12.6916 12.6719,12.6918 -6.6171,9.052 -6.6171,9.052 -23.7995,24.0333 -23.7988,24.0333 -9.1688,6.5003 -9.1695,6.5001 -14.4953,-14.1666 -14.4957,-14.1669 -5.2004,-2.933 -5.2001,-2.933 -8.3228,2.1856 -8.3236,2.1858 -2.3765,4.5863 -2.3762,4.5864 -1.6194,21.6232 -1.6191,21.623 -9.1042,2.8105 -9.1045,2.8105 -34.8761,0.2392 -34.8765,0.2391 -8.0875,-2.6631 -8.0878,-2.6631 -1.4432,-4.7669 -1.4433,-4.767 -1.2911,-16.3449 -1.2912,-16.3452 -2.8187,-4.7075 -2.8188,-4.7077 -7.0415,-2.9168 -7.0416,-2.9168 -4.5504,1.3778 -4.5507,1.3777 -15.68,15.6804 -15.6808,15.6803 -2.5449,-0.6009 -2.5456,-0.6008 -22.1108,-20.1014 -22.1104,-20.1016 -16.5174,-18.9444 -16.5175,-18.9445 16.462,-16.4621 16.4617,-16.4621 4e-4,-9.6425 v -9.6426 l -4.6644,-4.6611 -4.6643,-4.6612 -21.9995,-2.2108 -21.9999,-2.211 -1.1792,-1.1792 -1.1793,-1.1793 -2.8089,-12.5482 -2.8092,-12.5481 0.1599,-20.5498 0.1565,-20.5497 2.5483,-18.4265 2.5483,-18.4262 23.1216,-1.8309 23.1213,-1.831 4.8232,-4.8234 4.8235,-4.8233 4e-4,-9.6425 v -9.6426 l -16.3791,-16.3788 -16.3787,-16.3788 11.5525,-13.686 11.5528,-13.6862 19.3903,-18.8723 19.3906,-18.8724 z m -40.5796,70.67 0.6881,6.5455 13.9328,13.9328 13.9327,13.9327 -8.4708,23.1445 -8.4708,23.1444 -23.9835,0.9806 -23.9836,0.9804 -2.2082,7.8722 -2.2082,7.8721 v 21.5829 21.5827 l 2.1783,7.7561 2.1782,7.7561 24.0149,1.0998 24.0148,1.1 8.4691,23.1412 8.4698,23.1411 -13.9327,13.9328 -13.9325,13.9327 -0.7408,7.0471 -0.7408,7.0468 20.7039,20.7042 20.7046,20.7043 5.8875,0 5.8885,0 15.7732,-14.628 15.7733,-14.6277 22.7757,8.6967 22.7761,8.6967 1.2442,24.395 1.2439,24.3951 14.2987,1.6734 14.2985,1.6734 15.6811,-0.8429 15.6811,-0.843 6.8265,-2.081 6.827,-2.0812 0.1768,-23.6183 0.1769,-23.6181 23.6046,-8.5585 23.6043,-8.5587 14.2923,14.2923 14.2923,14.2922 5.4521,0.8466 5.4524,0.8464 23.0615,-21.7517 23.0611,-21.7519 -2.7402,-6.1017 -2.7398,-6.1019 -13.1018,-13.1016 -13.1015,-13.1016 7.6218,-20.7126 7.6222,-20.7126 1.7051,-2.6065 1.7048,-2.6065 24.059,-1.306 24.0598,-1.3061 0.054,-35.9482 0.058,-35.948 -1.6385,-1.6386 -1.6388,-1.6389 -23.0243,-0.1452 -23.024,-0.1452 -8.4225,-22.9159 -8.4226,-22.9158 14.0304,-15.7223 14.0301,-15.7224 v -5.8474 -5.8481 l -21.5161,-21.5162 -21.5162,-21.5161 -5.5429,0.8605 -5.5426,0.8605 -14.2923,14.2922 -14.2919,14.2923 -23.6047,-8.5586 -23.6049,-8.5585 -0.1769,-23.6183 -0.1769,-23.618 -6.8269,-2.0813 -6.8266,-2.0812 -14.9427,-0.8036 -14.9433,-0.8037 -15.0209,1.3306 -15.0212,1.3306 -1.2595,24.6985 -1.2599,24.6986 -22.8999,8.8211 -22.9002,8.8209 -13.2555,-13.1346 -13.2559,-13.1346 -6.2041,-2.0425 -6.2049,-2.0426 -6.8578,4.6003 -6.8586,4.6006 -15.8702,17.0329 -15.8702,17.0331 z m 122.1201,40.5596 8.7858,-4.4093 10.8511,-3.4827 10.8511,-3.4829 h 14.7937 l 14.794,0 12.7236,4.7322 12.7239,4.7321 11.2528,7.4892 11.2529,7.489 8.7385,12.2094 8.7381,12.2094 4.7991,14.0075 4.799,14.0074 -0.7055,18.3125 -0.7054,18.3124 -5.6259,12.3527 -5.6263,12.3527 -7.03,9.1807 -7.0303,9.1808 -11.7562,7.7733 -11.7566,7.7732 -14.4623,4.463 -14.4617,4.4629 -15.6407,-0.5222 -15.6402,-0.5222 -13.8518,-5.0108 -13.8519,-5.0109 -15.6692,-15.6692 -15.6691,-15.6693 -5.6429,-15.809 -5.6426,-15.8088 v -16.2145 -16.2147 l 5.6667,-15.6351 5.6667,-15.635 12.7729,-13.7672 12.7729,-13.7671 z m -21.1998,53.6884 -4.4361,11.0744 0.4711,16.8969 0.4711,16.8968 3.5646,9.2431 3.565,9.2433 12.2409,12.5192 12.2406,12.5189 13.9423,4.7816 13.9416,4.7814 11.3505,-0.7373 11.3504,-0.7372 13.4117,-4.8823 13.4113,-4.8824 10.6518,-10.7903 10.6515,-10.7904 5.0497,-13.6065 5.0494,-13.6066 -0.2041,-13.5067 -0.2007,-13.5068 -3.9279,-11.5529 -3.928,-11.5529 -13.2341,-13.1559 -13.2341,-13.1559 -8.8464,-2.6997 -8.8459,-2.6998 -10.3321,-1.2135 -10.3324,-1.2136 -14.3709,3.5684 -14.3709,3.5683 -8.7636,5.7859 -8.7634,5.7862 -6.5691,8.2754 -6.5691,8.2755 z m 591.8048,-909.0104 5.2215,-2.2278 5.9266,2.2164 5.9266,2.2163 4.2007,10.0196 4.2003,10.0195 53.6573,55.2027 53.657,55.2027 0.1938,31.968 0.1973,31.9678 -102.4784,102.4784 -102.4785,102.4783 0.5548,27.2151 0.5547,27.2152 -98.4273,99.5215 -98.4271,99.5218 0,4.1225 0,4.1224 -5.98,5.9802 -5.9807,5.9802 -7.4034,-0.2313 -7.4038,-0.231 -4.5045,-4.5044 -4.5045,-4.5045 v -8.0972 -8.0969 l 2.1599,-2.1136 2.1616,-2.112 10.1532,-4.6915 10.1528,-4.6917 95.5158,-94.1642 95.5155,-94.1643 -0.1667,-28.135 -0.1667,-28.135 102.3427,-102.3431 102.3435,-102.3429 -0.088,-22.542 -0.085,-22.5417 -54.9257,-53.5729 -54.9256,-53.5726 -7.2572,-2.8816 -7.2576,-2.8818 -3.0949,-5.1686 -3.0946,-5.1685 2.3082,-6.1729 2.3085,-6.1727 2.0881,-1.8802 2.0881,-1.8802 z m -1403.7874,1536.3269 5.1769,-1.3771 30.9468,-28.4751 30.9473,-28.4751 137.8518,-137.6245 137.8509,-137.6264 72.7152,0.1701 72.715,0.17 27.204,-28.8752 27.2043,-28.8753 4.6419,-9.9278 4.6422,-9.9279 3.9265,-2.0346 3.9269,-2.0346 7.5902,0.9065 7.5906,0.9067 3.151,3.1513 3.1514,3.1513 -3e-4,8.0971 3e-4,8.097 -5.5177,5.518 -5.5184,5.5179 -4.1215,-0 -4.1211,-0 -32.1949,31.146 -32.1945,31.1461 -72.705,0.1255 -72.7054,0.1256 -161.6929,162.9804 -161.6926,162.9805 -7.1381,11.6779 -7.1379,11.6777 -6.4296,0.3207 -6.429,0.3208 -6.3415,-6.3419 -6.3419,-6.342 v -6.5975 -6.5976 l 2.9361,-2.8369 2.9357,-2.837 z m 342.7455,-170.2601 54.3923,0.038 83.2408,-83.3857 83.2406,-83.3857 10.662,-14.0791 10.662,-14.0789 4.9752,-6.6356 4.9755,-6.6357 5.7484,0.298 5.749,0.2983 5.2412,3.1485 5.2416,3.1485 0.9098,7.6199 0.9102,7.62 -3.5571,5.2386 -3.5572,5.2389 -8.4902,3.4053 -8.4902,3.4055 -94.2172,92.636 -94.2171,92.6364 -53.958,-0.037 -53.958,-0.037 -84.434,84.4339 -84.4338,84.4339 1.182,23.6815 1.182,23.6813 3.5004,12.0465 3.4997,12.0467 -1.912,6.86 -1.9119,6.8601 -7.0388,1.989 -7.0392,1.9891 -5.749,-2.7575 -5.7491,-2.7575 -3.3041,-5.5182 -3.3041,-5.5185 2.6919,-6.289 2.6915,-6.289 2.2674,-5.9798 2.267,-5.9799 0.5738,-29.4385 0.5742,-29.4384 87.2749,-87.2748 87.2746,-87.2749 z m 1274.3873,-1205.7248 7.4038,0.231 4.9667,4.9667 4.9668,4.9668 -0.3415,7.081 -0.3412,7.0808 -3.2507,5.2538 -3.2511,5.2536 -1.3527,65.7586 -1.3527,65.7586 -82.9372,82.9368 -82.9367,82.9368 -46.0634,-0.5588 -46.064,-0.5587 -92.1685,94.2127 -92.1688,94.2126 -5.0953,8.0999 -5.0949,8.1 -3.8797,6.1399 -3.8793,6.1402 -6.9038,0.7256 -6.9031,0.7256 -6.2187,-6.219 -6.2195,-6.2192 -0.3163,-6.3527 -0.3163,-6.3528 5.8235,-4.1398 5.8232,-4.1399 9.1191,-5.7256 9.1191,-5.7255 95.7917,-95.6499 95.7916,-95.65 45.0127,1.1707 45.0119,1.1706 80.3167,-80.3164 80.3164,-80.3164 -0.3164,-31.8462 -0.3163,-31.8462 -1.2034,-26.8362 -1.2034,-26.8361 -3.7419,-11.5159 -3.7415,-11.5159 1.6548,-3.716 1.6547,-3.7161 3.7014,-3.701 3.7011,-3.7011 z m -981.9463,1036.6619 h 6.9242 l 5.7728,5.7728 5.7728,5.7729 v 6.9242 6.9242 l -6.2418,4.1526 -6.2416,4.1529 -11.7892,8.5085 -11.7892,8.5084 -104.0244,104.9438 -104.0241,104.944 -1.3245,9.2831 -1.3245,9.2829 -14.8375,17.4396 -14.8369,17.4395 -101.4083,101.5701 -101.4088,101.5701 0.1021,19.2676 0.102,19.2674 56.7737,55.6472 56.7736,55.6472 h 4.1225 4.1218 l 5.0759,5.076 5.0759,5.076 1.0983,6.2334 1.0983,6.2334 -5.3198,5.2142 -5.3198,5.2143 -4.6262,0.6078 -4.6262,0.6076 -5.5355,-1.6882 -5.5361,-1.6879 -7.0381,-11.9966 -7.0385,-11.9965 -52.879,-52.8789 -52.8791,-52.8791 0.065,-30.5121 0.065,-30.5122 104.5884,-104.8226 104.5883,-104.8226 11.5378,-13.8507 11.5379,-13.8508 1.3623,-9.5358 1.3622,-9.5357 106.8588,-109.212 106.8584,-109.2121 7.2793,-10.8643 7.2786,-10.8644 3.4678,-5.2775 3.4677,-5.2774 z m 556.4943,-484.5988 9.0103,-4.1854 39.9782,-38.0965 39.9789,-38.0963 32.4333,0.061 32.433,0.061 18.9692,-19.0287 18.9695,-19.0287 12.9321,-15.9734 12.9318,-15.9734 3.734,-7.9646 3.7344,-7.9646 6.8963,-1.9378 6.8963,-1.9379 6.2137,2.9804 6.214,2.9804 1.931,6.8725 1.9309,6.8723 -2.8425,5.9261 -2.8422,5.9261 -11.294,5.7798 -11.294,5.7798 -31.5928,31.5924 -31.5921,31.5923 -33.0492,-0.1231 -33.0493,-0.1235 -39.863,40.9572 -39.8629,40.9574 -2.1857,6.6427 -2.1854,6.6429 -4.9569,2.9677 -4.9568,2.968 -6.1728,-2.3085 -6.1729,-2.3086 -2.9987,-2.9987 -2.9986,-2.9986 -0.9276,-7.7645 -0.9276,-7.7645 3.7838,-3.399 3.784,-3.3992 z m -519.6318,520.032 6.228,0.3109 4.9065,4.6363 4.9068,4.6363 1.6837,5.5599 1.6834,5.56 -2.7582,4.6071 -2.7586,4.6068 -9.4432,3.7135 -9.4437,3.7135 -77.3374,76.0561 -77.3374,76.056 0.1497,46.2877 0.1496,46.2878 -84.8963,85.0351 -84.8963,85.0351 -0.6269,23.2896 -0.6265,23.2898 51.7215,51.6555 51.7216,51.6554 22.3869,-1.308 22.3866,-1.3083 11.0134,-4.5467 11.0137,-4.5469 6.7187,2.7832 6.7188,2.783 3.0901,5.1608 3.0899,5.1609 -2.3378,7.3464 -2.3388,7.3466 -3.0136,3.0138 -3.0137,3.0136 -6.1527,1.084 -6.1528,1.0839 -8.0385,-4.6277 -8.0382,-4.6277 -28.8951,-0.8728 -28.8955,-0.8727 -55.0379,-55.038 -55.0379,-55.0379 0.061,-32.1616 0.061,-32.162 85.8463,-85.8464 85.8463,-85.8464 -1.2149,-44.9683 -1.215,-44.9681 71.9768,-72.0857 71.9768,-72.0857 9.8154,-13.2766 9.8147,-13.2766 4.1562,-5.8072 4.1561,-5.8069 z m 553.5617,-482.8031 5.2885,-1.3094 27.9869,-26.7947 27.9874,-26.7947 70.572,0.027 70.5717,0.027 37.9949,-37.9946 37.9946,-37.9947 22.0376,0.2296 22.0369,0.2296 5.4378,1.7681 5.4371,1.7679 6.7589,6.7591 6.7589,6.7589 7.9688,3.272 7.9684,3.272 14.4553,0.5885 14.4552,0.5884 33.967,-33.967 33.9669,-33.967 0.095,-18.4771 0.095,-18.4773 4.9385,-7.9216 4.9385,-7.9215 17.1736,-17.2529 17.1736,-17.2528 7.864,-13.1283 7.8637,-13.1284 4.7946,-2.8708 4.7949,-2.8707 6.9086,2.8617 6.9092,2.8618 3.0848,6.1543 3.085,6.1543 -1.8721,6.7127 -1.8725,6.7126 -9.0636,3.2106 -9.0641,3.2107 -20.2202,18.2846 -20.2213,18.2846 -5.1453,7.5221 -5.1456,7.5222 -0.4044,19.9448 -0.4044,19.9448 -36.3242,36.3238 -36.3234,36.3237 -28.7778,-0.5274 -28.7778,-0.5274 -9.0538,-6.9995 -9.0539,-6.9995 -5.8065,-4.2733 -5.8068,-4.2733 -13.1648,0.1534 -13.1647,0.1534 -38.7487,37.7959 -38.7486,37.7959 -71.3697,0.078 -71.3696,0.078 -22.7149,24.5939 -22.7148,24.594 -4.6102,9.8243 -4.6099,9.8245 -1.5171,1.517 -1.517,1.517 -8.097,10e-5 -8.097,-10e-5 -4.6562,-4.6561 -4.6561,-4.6562 -1.098,-6.2334 -1.0983,-6.2334 5.3164,-5.2175 5.3163,-5.2175 z m -513.5698,517.7788 8.0361,0.9598 3.6786,3.6787 3.6783,3.6786 0.9602,8.0369 0.9599,8.0368 -5.9443,4.2971 -5.945,4.2972 -8.3609,4.834 -8.3613,4.8341 -47.8892,47.8105 -47.8899,47.8106 0.034,57.5282 0.034,57.5285 -37.5894,38.579 -37.5888,38.5791 -1.4031,14.1706 -1.4027,14.1706 57.0389,57.039 57.039,57.0388 0.1224,78.3795 0.1225,78.3793 -26.6425,26.6422 -26.6417,26.642 -4.1259,6.1883 -4.1255,6.1884 -0.8885,13.9507 -0.8887,13.9507 44.6578,44.6578 44.6579,44.658 0.4623,64.8471 0.4625,64.8468 4.2861,10.7175 4.2861,10.7174 -2.2337,5.9725 -2.2337,5.9729 -6.8,2.8166 -6.8008,2.8171 -6.0347,-2.2572 -6.0354,-2.2572 -2.2728,-6.4568 -2.2729,-6.4572 3.8994,-12.5852 3.9,-12.5851 1.3398,-58.7039 1.3402,-58.7036 -44.7252,-44.8838 -44.7256,-44.8836 1.1218,-26.0935 1.1214,-26.0934 30.5027,-30.5552 30.5023,-30.5553 -0.034,-66.8001 -0.034,-66.8001 -56.4951,-56.495 -56.4954,-56.4952 -0.5874,-25.7664 -0.5881,-25.7661 38.1476,-38.1473 38.1473,-38.1473 -0.034,-57.2018 -0.034,-57.2017 49.5508,-51.5887 49.5514,-51.5885 4.7603,-8.4347 4.7606,-8.4349 3.4558,-5.1373 3.4551,-5.1375 z m 552.0973,-480.9008 11.962,-6.1813 13.3083,-13.1069 13.3083,-13.1069 82.4446,0.024 82.4453,0.024 30.7285,-30.7288 30.7288,-30.7288 23.5975,0.6063 23.5972,0.6063 6.5078,4.3383 6.5076,4.3385 13.6072,13.6074 13.6076,13.6075 6.3276,4.2184 6.3277,4.2185 17.5246,0.788 17.5246,0.7878 127.7893,-129.6383 127.7888,-129.6386 4.9188,-8.2763 4.9187,-8.2764 3.365,-5.5093 3.366,-5.5093 h 8.4437 l 8.4439,-10e-5 4.9586,4.9589 4.9592,4.959 -0.2313,7.1937 -0.2313,7.1939 -8.4953,6.3494 -8.495,6.3493 -135.9114,133.6941 -135.911,133.6943 -27.6278,0.07 -27.6275,0.07 -23.2516,-21.7648 -23.2515,-21.7648 -7.5525,-2.3435 -7.5528,-2.3435 -8.5327,0.2854 -8.5324,0.2854 -31.4156,30.3975 -31.4159,30.3974 -82.251,-0.024 -82.2514,-0.024 -10.9991,10.9988 -10.9987,10.9988 -6.7124,12.7784 -6.7123,12.7783 -4.7792,2.1983 -4.7797,2.1984 -5.0408,-1.5261 -5.0406,-1.5262 -3.8646,-3.8649 -3.865,-3.865 -1.0364,-5.8837 -1.0368,-5.8839 2.214,-3.6597 2.2143,-3.6597 z m -517.8293,516.8509 5.7463,0.2867 6.0548,6.0552 6.0558,6.0555 v 6.5975 6.5976 l -2.2728,2.2727 -2.2731,2.2727 -9.0777,3.6953 -9.0779,3.6951 -35.2293,33.5391 -35.2285,33.5389 -0.034,63.9767 -0.034,63.9767 68.4727,68.4727 68.4731,68.4729 v 141.8336 141.8335 l 33.0275,33.0276 33.0275,33.0276 -0.1395,30.3747 -0.1395,30.3746 -35.6788,36.8945 -35.6789,36.8942 -2.4262,8.2317 -2.4266,8.2317 -6.6742,2.3408 -6.6742,2.3405 -6.5824,-1.8537 -6.5817,-1.8538 -2.5071,-7.1235 -2.5075,-7.1236 2.9765,-6.2058 2.9766,-6.2058 7.5351,-3.0674 7.5354,-3.0674 35.167,-33.6686 35.167,-33.6689 0.102,-19.3055 0.1021,-19.3054 -33.0466,-33.0466 -33.0465,-33.0464 v -145.1326 -145.1328 l -68.4707,-68.4709 -68.4707,-68.4707 0.034,-71.7483 0.034,-71.7484 33.0401,-33.0399 33.0397,-33.0399 7.0246,-11.9729 7.0245,-11.9727 2.9627,-2.9626 2.9629,-2.9627 z m 553.9092,-479.2717 8.097,1e-4 2.3106,2.3104 2.3106,2.3107 21.5478,1.1959 21.5481,1.196 69.9796,0.4397 69.9795,0.4396 32.539,-1.5203 32.5384,-1.5204 3.0558,-3.0558 3.0558,-3.0559 7.7647,0.9275 7.7644,0.9273 4.4381,4.4382 4.4382,4.4383 -0.2313,7.4038 -0.2313,7.4037 -4.9984,4.9986 -4.999,4.9986 -5.4517,-0.3211 -5.4518,-0.3211 -8.2222,-3.3235 -8.2225,-3.3236 -58.6757,-1.3937 -58.6757,-1.3938 -46.6953,1.1373 -46.6949,1.1374 -15.0437,1.0899 -15.0437,1.0901 -2.9469,2.9468 -2.947,2.9469 -7.7644,-0.9275 -7.7643,-0.9273 -3.9759,-3.9761 -3.9759,-3.976 -3e-4,-8.0971 v -8.097 l 4.2738,-4.2734 4.2732,-4.2734 z m -512.5062,518.4292 7.1807,0.2412 2.5017,4.0958 2.5018,4.0959 4.0616,9.1335 4.0616,9.1335 5.3963,5.5415 5.3966,5.5416 1.764,5.4411 1.7646,5.4411 0.3164,17.2566 0.3163,17.2568 -2.0779,6.7097 -2.0779,6.7098 -8.5447,10.7075 -8.5443,10.7077 -1.4728,4.5921 -1.4724,4.5922 -0.6232,12.2802 -0.6228,12.2803 47.2372,47.2373 47.2371,47.2371 -0.034,112.1406 -0.034,112.1406 34.7238,34.5688 34.7238,34.5688 22.4584,19.7878 22.4576,19.7879 3.7725,-2e-4 h 3.7721 l 4.4358,4.4355 4.4351,4.4356 0.7149,6.7983 0.7147,6.7982 -5.4661,5.4661 -5.4667,5.4662 -8.6735,-0.652 -8.6736,-0.652 -3.3997,-5.1428 -3.4,-5.143 -5.7429,-9.1013 -5.7436,-9.1014 -51.0688,-51.2112 -51.0678,-51.2128 0.034,-112.1406 0.034,-112.1406 -47.0732,-47.073 -47.0728,-47.0731 0.2109,-17.1082 0.2108,-17.1084 2.1378,-10.6928 2.1378,-10.693 5.1136,-5.1468 5.114,-5.1469 4.7392,-8.3816 4.7388,-8.3819 v -12.1712 -12.1712 l -5.2633,-7.6942 -5.2633,-7.6943 -10.409,-4.9528 -10.4089,-4.953 -3.234,-3.234 -3.2341,-3.2342 0.2857,-5.746 0.2858,-5.746 5.9908,-5.9911 5.9912,-5.991 z m 510.0157,-330.6294 7.9613,-3.124 11.8025,-10.1001 11.8018,-10.1001 4.6868,-3.0952 4.6864,-3.0949 17.5777,-0.4901 17.5777,-0.4899 5.1253,1.5502 5.1255,1.5502 14.0277,11.7588 14.0283,11.7589 14.4869,0.1357 14.4879,0.1357 52.0399,-52.0399 52.0399,-52.0399 67.7197,0.1249 67.7193,0.1244 113.9673,-115.2983 113.9673,-115.2984 5.0296,-9.9998 5.0297,-10 4.7153,-2.1687 4.7157,-2.1688 6.4348,1.1337 6.4347,1.1336 2.8398,2.8398 2.8402,2.8399 0.5575,7.9801 0.5578,7.9801 -4.8589,5.0373 -4.8592,5.0372 -9.2222,5.6224 -9.2222,5.6225 -115.9717,113.8318 -115.9721,113.8318 -65.437,-0.031 -65.4373,-0.031 -52.1947,52.1947 -52.1947,52.1945 -20.8774,-0.6963 -20.877,-0.6962 -5.9824,-1.3085 -5.9824,-1.3084 -15.4807,-12.2067 -15.4808,-12.2066 -10.1381,-10e-5 -10.1382,10e-5 -11.8576,10.5893 -11.8579,10.5894 -3.6793,8.9608 -3.6796,8.9607 -4.6531,4.6532 -4.6531,4.6532 -6.2334,-1.0982 -6.2334,-1.0981 -4.6565,-4.6563 -4.6562,-4.656 v -8.0971 -8.0969 l 2.2721,-2.0016 2.2722,-2.0014 z m -179.8903,181.334 8.3293,-0.9948 4.263,5.9788 4.2629,5.9789 5.7256,9.119 5.7255,9.1191 92.1873,92.3308 92.1875,92.3309 0.1633,56.2458 0.1632,56.2458 77.2538,77.2535 77.2534,77.2536 0.6731,29.9197 0.6731,29.9195 3.5365,5.873 3.5367,5.8729 0.2483,7.1752 0.2483,7.1752 -4.7354,4.7356 -4.7357,4.7357 -8.097,-10e-5 h -8.0967 l -3.0072,-3.0068 -3.0068,-3.0067 -1.0823,-6.1451 -1.0827,-6.1452 3.8463,-10.0593 3.8459,-10.0594 0.8388,-23.0777 0.8381,-23.0775 -77.7976,-77.7977 -77.7973,-77.7976 0.1905,-56.2346 0.1905,-56.2347 -91.7352,-89.6982 -91.7351,-89.6982 -9.9498,-6.544 -9.9501,-6.5439 -5.0436,-3.2776 -5.0435,-3.2776 0.2959,-5.9565 0.2959,-5.9565 3.8926,-5.8392 3.8929,-5.8392 z m -149.1469,148.9256 h 6.5977 l 6.3422,6.3421 6.3419,6.3419 -0.2857,5.7462 -0.2857,5.7458 -2.9154,2.9151 -2.915,2.915 -11.7433,6.4536 -11.7436,6.4536 -11.697,12.9416 -11.6978,12.9416 0.3558,17.7096 0.3565,17.7092 15.9413,17.7964 15.9413,17.7962 2.1429,9.0779 2.1432,9.0778 -0.5878,14.4343 -0.5874,14.4345 -3.2721,7.9685 -3.2722,7.9686 -4.2293,4.2294 -4.2296,4.2295 -3.3089,8.0586 -3.3088,8.0586 2.1309,8.7887 2.131,8.7883 7.6327,7.6327 7.6331,7.6327 4.5272,-0.4209 4.5273,-0.4208 6.1398,6.14 6.1402,6.1401 -0.2857,5.7461 -0.2857,5.7459 -4.2711,4.2711 -4.2712,4.2709 -3.6942,1.6456 -3.6949,1.6454 -7.5103,-2.3904 -7.5106,-2.3907 -4.3426,-9.2727 -4.3429,-9.2727 -6.1371,-8.1856 -6.1368,-8.1858 -2.9299,-9.1378 -2.9297,-9.138 0.3402,-9.0343 0.3401,-9.0344 2.5684,-7.7906 2.5684,-7.7906 7.6456,-10.4896 7.6457,-10.4897 0.9595,-8.9389 0.9589,-8.939 -1.7194,-7.036 -1.7198,-7.0363 -12.127,-12.127 -12.1266,-12.1268 -3.7636,-6.7908 -3.764,-6.7907 -1.2946,-11.8878 -1.2942,-11.8878 1.2929,-15.1987 1.2928,-15.1987 15.7298,-18.3928 15.7297,-18.3928 3.5044,-8.5357 3.5048,-8.5356 2.2725,-2.2727 2.2728,-2.2727 z m 256.3009,-254.4279 7.2796,-2.9698 4.7963,2.8717 4.7963,2.8719 3.7912,9.3655 3.7916,9.3653 47.9123,49.4019 47.9123,49.4019 61.1638,-0.1697 61.1638,-0.1698 37.9051,37.9049 37.9044,37.9049 18.9645,0.099 18.9641,0.099 61.0866,-61.0864 61.0862,-61.0865 140.3013,0.1174 140.3009,0.117 67.7914,-69.1083 67.791,-69.1084 4.1314,-9.2657 4.1316,-9.2657 7.1205,-2.9051 7.1205,-2.905 3.8636,1.7209 3.864,1.7209 3.9242,3.9243 3.9245,3.9243 -0.2449,6.9729 -0.2483,6.9728 -5.1317,5.132 -5.1323,5.132 -4.1215,-0 -4.1218,-0 -71.7476,70.7636 -71.7472,70.7636 -75.4371,0.4353 -75.4367,0.4353 -64.1067,0.7182 -64.1066,0.7182 -60.8108,60.8108 -60.8111,60.8109 -30.5118,-0.064 -30.5122,-0.064 -37.9221,-37.9219 -37.9214,-37.9216 -60.9944,0.034 -60.9941,0.034 -46.2711,-46.1279 -46.2715,-46.1281 -9.0348,-5.8103 -9.0341,-5.8103 -6.7351,-4.8286 -6.7354,-4.8286 0.4048,-5.6943 0.4047,-5.6942 2.6358,-4.3189 2.6354,-4.3191 z m -41.3966,38.8407 3.981,-2.6166 5.7051,-0.3398 5.7058,-0.3398 4.1123,5.851 4.112,5.8509 6.6041,9.8896 6.6045,9.8896 73.3173,73.5141 73.3176,73.5139 57.6931,-0.036 57.6937,-0.035 79.2401,79.2402 79.2402,79.2403 18.9641,-0.099 18.9644,-0.099 50.0399,-50.0402 50.0403,-50.0402 36.2248,-0.714 36.2251,-0.714 16.9519,-1.3317 16.9518,-1.3317 2.7841,-2.7836 2.783,-2.7836 8.0973,0 8.0967,0 5.5926,5.5923 5.5922,5.5922 -0.3517,5.421 -0.3521,5.4211 -2.6354,4.9485 -2.635,4.9484 -6.8644,1.4298 -6.864,1.4297 -10.4613,-4.1837 -10.4613,-4.1839 -44.0014,-0.5189 -44.0014,-0.5189 -50.4433,50.4429 -50.4426,50.4428 -28.8629,0.067 -28.8625,0.067 -79.2228,-79.2228 -79.2228,-79.223 -57.2556,0.035 -57.2552,0.035 -79.4154,-77.7502 -79.4153,-77.7504 -10.9212,-5.2494 -10.9212,-5.2494 -1.9959,-5.3367 -1.9959,-5.3368 3.1224,-6.2082 3.1218,-6.2085 z m -27.705,30.4443 6.5,-1.1451 4.2671,6.0471 4.2673,6.047 6.6045,9.8896 6.6042,9.8896 90.6698,90.8665 90.6702,90.8667 19.6893,-0.1034 19.6896,-0.1034 94.9481,94.9481 94.9481,94.9482 17.1703,-0.1487 17.1698,-0.1486 6.3848,-2.9016 6.3851,-2.9016 22.3648,-22.3649 22.3645,-22.3647 59.4743,-0.6778 59.474,-0.6778 11.7831,-4.2477 11.7828,-4.2477 4.7697,0.6475 4.7695,0.6475 4.2772,4.1723 4.2772,4.1724 0.2381,6.7239 0.2381,6.7239 -2.3449,4.5257 -2.3449,4.5257 -6.864,1.4298 -6.8643,1.4297 -10.4239,-4.1688 -10.4239,-4.1689 -55.5815,-0.5372 -55.5811,-0.5372 -25.7706,25.7705 -25.7703,25.7705 -30.5122,-0.064 -30.5125,-0.064 -94.0359,-94.036 -94.0362,-94.0362 -19.1903,0.1011 -19.1906,0.101 -95.375,-93.2554 -95.3753,-93.2553 -9.1889,-5.6559 -9.1885,-5.6558 -5.2589,-3.4861 -5.2589,-3.4861 v -6.9241 -6.9241 l 5.4055,-5.4059 5.4058,-5.4059 z m -74.2272,74.2237 6.4953,-1.1443 5.1395,6.8282 5.1395,6.8283 5.7106,9.1341 5.7099,9.1341 34.5823,34.7257 34.5826,34.7259 -0.034,60.9941 -0.034,60.9938 51.9719,51.9732 51.9718,51.9734 -1.1221,45.3639 -1.1221,45.3638 23.0529,21.7726 23.0533,21.7725 8.4082,2.0517 8.4086,2.0518 3.0653,8.6544 3.0657,8.6544 -3.215,5.3697 -3.215,5.3698 -5.8609,2.1917 -5.8606,2.1917 -6.0484,-2.2619 -6.049,-2.2622 -8.6191,-14.1041 -8.6195,-14.1041 -19.1634,-19.1632 -19.1628,-19.163 0.6296,-45.5532 0.63,-45.5533 -52.1716,-52.1713 -52.1712,-52.1713 0.1667,-61.1629 0.1666,-61.1627 -36.2693,-34.6551 -36.2684,-34.6551 -9.8613,-4.5732 -9.8616,-4.5734 -1.5167,-1.517 -1.5174,-1.5169 v -8.0972 -8.0969 l 4.6565,-4.6562 4.6559,-4.6561 z m -33.5544,35.4227 6.9728,0.247 1.9616,1.9616 1.9616,1.9616 3.6861,9.0875 3.6861,9.0874 22.5066,24.1456 22.5067,24.1455 -0.034,75.4026 -0.034,75.4025 35.6173,35.6172 35.617,35.6171 -0.4065,21.8604 -0.4061,21.8606 -1.7782,5.8121 -1.7779,5.8122 -10.6175,12.5601 -10.6164,12.5602 -1.6211,8.5433 -1.6208,8.5432 1.1684,7.8452 1.1684,7.8451 31.6084,33.0913 31.6085,33.0911 25.0944,0.1561 25.0945,0.1562 25.6043,24.543 25.6039,24.5428 h 4.1205 4.1211 l 5.3786,5.3786 5.379,5.3789 -0.2449,6.9729 -0.2449,6.9727 -3.5902,3.5901 -3.5905,3.59 -7.5902,0.9067 -7.5902,0.9065 -3.9392,-2.041 -3.9391,-2.0411 -3.5915,-8.7479 -3.5922,-8.7477 -15.1179,-17.0794 -15.1178,-17.0795 -7.5415,-5.159 -7.5419,-5.1589 -23.1815,-0.3573 -23.1819,-0.3572 -36.3034,-36.3037 -36.3037,-36.3035 0.3949,-22.4385 0.3949,-22.4386 3.4048,-8.2929 3.4051,-8.2926 8.3821,-8.3819 8.382,-8.3819 2.3082,-7.2534 2.3089,-7.2533 -1.4337,-10.6762 -1.4344,-10.6762 -34.3697,-35.4715 -34.3703,-35.4717 0.034,-75.5686 0.034,-75.5684 -18.2226,-18.2227 -18.2223,-18.2225 -11.9729,-7.0246 -11.9729,-7.0246 -2.9626,-2.9626 -2.9626,-2.9627 0.2857,-5.7459 0.2857,-5.7461 5.9912,-5.9911 5.9909,-5.991 z m -38.1827,37.5608 h 6.5977 l 3.0973,3.0974 3.0973,3.0972 3.5756,8.7081 3.5759,8.708 12.7191,14.6505 12.7185,14.6505 -0.034,86.9283 -0.034,86.9281 27.5019,27.5022 27.5023,27.5021 0.7772,25.4543 0.7773,25.4541 -21.1356,22.6376 -21.1352,22.6374 -1.9912,6.2555 -1.9919,6.2555 -0.2619,13.7582 -0.2619,13.7583 64.4193,64.419 64.4186,64.419 -0.044,42.0588 -0.044,42.0586 -47.1283,47.1288 -47.129,47.1286 0.4953,100.9424 0.4952,100.9424 3.5616,9.6338 3.5619,9.6334 0.3667,5.4058 0.3673,5.4055 -5.2296,5.23 -5.23,5.2296 -7.0514,-0.3707 -7.0518,-0.3705 -3.3275,-1.6204 -3.328,-1.6204 -2.2772,-4.9722 -2.2772,-4.9724 2.6691,-8.2222 2.669,-8.2219 1.4691,-19.9733 1.469,-19.9733 0.53,-90.4538 0.5303,-90.4536 46.9048,-46.9051 46.9052,-46.9051 -0.061,-32.1617 -0.061,-32.1618 -64.3316,-64.3313 -64.3308,-64.3311 0.1565,-28.7077 0.1564,-28.7077 22.6268,-23.696 22.6267,-23.6962 1.4306,-12.349 1.4303,-12.3492 -4.3959,-7.7767 -4.3963,-7.7769 -23.9132,-23.9465 -23.9138,-23.9464 0.1769,-74.374 0.1768,-74.3735 -1.55,-14.4156 -1.55,-14.4153 -10.6259,-10.6259 -10.6263,-10.6261 -8.395,-3.4472 -8.3956,-3.4473 -3.8283,-3.8283 -3.8286,-3.8286 1.0983,-6.2334 1.098,-6.2334 5.4058,-5.4059 5.4062,-5.4059 z m 254.5193,-254.2781 4.5361,-1.1964 4.8977,1.4829 4.8983,1.4832 3.4735,8.972 3.4738,8.9722 36.1058,37.6812 36.1054,37.6815 57.3046,0.035 57.3046,0.035 46.2082,-46.2081 46.2079,-46.208 138.5342,0.014 138.5346,0.014 64.1522,-64.1524 64.1523,-64.1524 32.0656,-0.2833 32.0656,-0.2834 42.5843,-44.1853 42.5848,-44.1853 3.6667,-9.107 3.6663,-9.1068 2.3477,-2.3476 2.3476,-2.3477 8.0967,-1e-4 8.097,0 4.9055,4.9054 4.9055,4.9053 v 5.1788 5.179 l -3.0116,5.0298 -3.012,5.0298 -8.7449,3.1166 -8.745,3.1165 -46.797,44.9669 -46.7967,44.9669 -29.1244,-0.068 -29.1244,-0.068 -64.3679,64.368 -64.3683,64.3681 -138.5342,-0.014 -138.5345,-0.014 -47.8549,47.8552 -47.8555,47.8553 -65.0104,-0.1405 -65.0108,-0.1408 -39.4486,-38.0726 -39.449,-38.0726 -9.1123,-4.0829 -9.112,-4.0829 -2.2681,-4.9388 -2.268,-4.9386 1.5262,-5.0406 1.5262,-5.0406 3.8691,-3.77 3.869,-3.7701 z"
       id="path2" /><path
       style="fill:#59c99c;fill-opacity:1;stroke-width:2.33259"
       d="m 4455.4076,-124.56469 4.5361,-1.19634 4.8977,1.48287 4.8983,1.48315 3.4735,8.97201 3.4739,8.97219 36.1057,37.681282 36.1054,37.68142 57.3046,0.035 57.3046,0.0354 46.2082,-46.20802 46.2079,-46.208032 138.5342,0.0136 138.5346,0.0136 64.1522,-64.15237 64.1523,-64.15243 32.0656,-0.28334 32.0656,-0.28333 42.5843,-44.18536 42.5848,-44.18528 3.6667,-9.10702 3.6663,-9.10681 2.3477,-2.34761 2.3476,-2.34767 8.0967,-7e-5 8.097,-7e-5 4.9055,4.90545 4.9055,4.90532 v 5.17878 5.17896 l -3.0116,5.02984 -3.012,5.02984 -8.7449,3.11652 -8.745,3.11653 -46.797,44.96692 -46.7967,44.96689 -29.1244,-0.0677 -29.1244,-0.0677 -64.3679,64.36804 -64.3683,64.36808 -138.5342,-0.0136 -138.5345,-0.0136 -47.8548,47.855222 -47.8556,47.85525 -65.0104,-0.14048 -65.0108,-0.14082 -39.4486,-38.07264 -39.449,-38.07258 -9.1123,-4.08289 -9.112,-4.0829 -2.2681,-4.938782 -2.268,-4.93862 1.5262,-5.04062 1.5262,-5.04052 3.8691,-3.77007 3.8691,-3.7701 z"
       id="path48" /><path
       style="fill:#59c99c;fill-opacity:1;stroke-width:2.33259"
       d="m 4200.8884,129.71342 h 6.5977 l 3.0973,3.09741 3.0973,3.09724 3.5755,8.7081 3.5759,8.70797 12.7192,14.65044 12.7184,14.65057 -0.034,86.92831 -0.034,86.92811 27.502,27.50214 27.5022,27.50215 0.7773,25.45427 0.7772,25.4541 -21.1356,22.63758 -21.1352,22.63744 -1.9912,6.25547 -1.9918,6.25549 -0.2619,13.75825 -0.2619,13.75825 64.4192,64.419 64.4186,64.419 -0.044,42.0588 -0.044,42.0586 -47.1283,47.1288 -47.129,47.1286 0.4953,100.9424 0.4952,100.94239 3.5616,9.6338 3.562,9.6334 0.3666,5.4058 0.3674,5.4055 -5.2297,5.23 -5.2299,5.2296 -7.0515,-0.3707 -7.0517,-0.3705 -3.3276,-1.6204 -3.3279,-1.6204 -2.2773,-4.9722 -2.2772,-4.9724 2.6691,-8.2222 2.6691,-8.2219 1.469,-19.9733 1.4691,-19.9733 0.5299,-90.45379 0.5303,-90.4536 46.9048,-46.9051 46.9052,-46.9051 -0.061,-32.1617 -0.061,-32.1618 -64.3315,-64.3313 -64.3309,-64.3311 0.1565,-28.7077 0.1565,-28.7077 22.6267,-23.69602 22.6267,-23.69616 1.4307,-12.34902 1.4302,-12.34916 -4.3959,-7.7767 -4.3963,-7.77691 -23.9132,-23.94653 -23.9138,-23.9464 0.1769,-74.37395 0.1769,-74.37358 -1.55,-14.41553 -1.55,-14.41537 -10.626,-10.62587 -10.6263,-10.62605 -8.3949,-3.44724 -8.3957,-3.44728 -3.8283,-3.82836 -3.8286,-3.82857 1.0983,-6.23343 1.098,-6.23335 5.4058,-5.4059 5.4062,-5.4059 z"
       id="path47" /><path
       style="fill:#59c99c;fill-opacity:1;stroke-width:2.33259"
       d="m 4239.071,92.152652 6.9729,0.24694 1.9616,1.96165 1.9615,1.96162 3.6861,9.087488 3.6861,9.08733 22.5067,24.14562 22.5066,24.14548 -0.034,75.40264 -0.034,75.40249 35.6174,35.61722 35.6169,35.61712 -0.4064,21.86039 -0.4062,21.86057 -1.7782,5.81216 -1.7779,5.81212 -10.6175,12.56015 -10.6164,12.56014 -1.6211,8.54331 -1.6207,8.54323 1.1683,7.84518 1.1684,7.84513 31.6085,33.09131 31.6084,33.09107 25.0944,0.1561 25.0945,0.1562 25.6043,24.543 25.6039,24.5428 h 4.1205 4.1211 l 5.3786,5.3786 5.379,5.3789 -0.2449,6.9729 -0.2449,6.9727 -3.5902,3.5901 -3.5905,3.59 -7.5902,0.9067 -7.5902,0.9065 -3.9391,-2.041 -3.9392,-2.0411 -3.5915,-8.7479 -3.5922,-8.7477 -15.1178,-17.0794 -15.1179,-17.0795 -7.5415,-5.159 -7.5419,-5.1589 -23.1815,-0.3573 -23.1819,-0.3572 -36.3033,-36.30369 -36.3038,-36.30345 0.3949,-22.43853 0.3949,-22.43866 3.4048,-8.29283 3.4052,-8.29266 8.382,-8.38188 8.3821,-8.38187 2.3081,-7.2534 2.3089,-7.25333 -1.4337,-10.67621 -1.4343,-10.67622 -34.3697,-35.47147 -34.3704,-35.47167 0.034,-75.56862 0.034,-75.56842 -18.2226,-18.22271 -18.2223,-18.22244 -11.9729,-7.02462 -11.9729,-7.02458 -2.9626,-2.96265 -2.9626,-2.96268 0.2857,-5.74593 0.2857,-5.74604 5.9912,-5.991098 5.9909,-5.99104 z"
       id="path46" /><path
       style="fill:#59c99c;fill-opacity:1;stroke-width:2.33259"
       d="m 4272.6254,56.729932 6.4953,-1.14433 5.1395,6.82822 5.1395,6.82826 5.7106,9.13416 5.7099,9.13413 34.5823,34.725678 34.5826,34.72584 -0.034,60.99411 -0.034,60.99387 51.9719,51.97318 51.9719,51.97341 -1.1222,45.3639 -1.1221,45.36373 23.0529,21.77268 23.0533,21.77247 8.4082,2.05168 8.4086,2.05182 3.0654,8.6544 3.0656,8.65436 -3.215,5.36977 -3.215,5.36974 -5.8609,2.19172 -5.8606,2.19168 -6.0483,-2.26192 -6.0491,-2.26216 -8.6191,-14.10414 -8.6195,-14.1041 -19.1634,-19.16313 -19.1627,-19.16299 0.6295,-45.55329 0.63,-45.55325 -52.1716,-52.17128 -52.1712,-52.17134 0.1667,-61.16292 0.1667,-61.16271 -36.2694,-34.65506 -36.2683,-34.655098 -9.8613,-4.57324 -9.8617,-4.57337 -1.5167,-1.51696 -1.5173,-1.51691 v -8.09718 -8.09695 l 4.6565,-4.65616 4.6558,-4.65616 z"
       id="path45" /><path
       style="fill:#59c99c;fill-opacity:1;stroke-width:2.33259"
       d="m 4346.8526,-17.493778 6.5,-1.14508 4.2671,6.04706 4.2674,6.0469901 6.6044,9.88961 6.6042,9.8895799 90.6698,90.866578 90.6702,90.86668 19.6893,-0.10341 19.6896,-0.1034 94.9481,94.94811 94.9482,94.94815 17.1702,-0.14864 17.1698,-0.14864 6.3848,-2.90159 6.3851,-2.90163 22.3648,-22.36482 22.3645,-22.36475 59.4743,-0.67783 59.474,-0.67776 11.7831,-4.24769 11.7828,-4.24769 4.7697,0.64748 4.7695,0.64749 4.2772,4.17232 4.2772,4.17238 0.2381,6.72394 0.2381,6.7239 -2.3449,4.52569 -2.3449,4.52565 -6.864,1.42981 -6.8643,1.4297 -10.4239,-4.16877 -10.4239,-4.16888 -55.5815,-0.53722 -55.5811,-0.53722 -25.7706,25.77054 -25.7703,25.77046 -30.5122,-0.064 -30.5125,-0.0636 -94.0358,-94.03596 -94.0362,-94.0362 -19.1903,0.10102 -19.1907,0.10102 -95.375,-93.25534 -95.3753,-93.255338 -9.1889,-5.65587 -9.1885,-5.65586 -5.2589,-3.48605 -5.2589,-3.4860899 v -6.92411 -6.9241 l 5.4055,-5.4059001 5.4059,-5.40587 z"
       id="path44" /><path
       style="fill:#59c99c;fill-opacity:1;stroke-width:2.33259"
       d="m 4374.5576,-47.938098 3.981,-2.61659 5.7051,-0.33979 5.7059,-0.3398 4.1122,5.85103 4.112,5.85087 6.6041,9.88958 6.6045,9.88961 73.3173,73.51411 73.3177,73.513948 57.693,-0.0357 57.6937,-0.0354 79.2401,79.24015 79.2402,79.24028 18.9641,-0.0993 18.9644,-0.0993 50.0399,-50.0402 50.0403,-50.04016 36.2248,-0.71402 36.2251,-0.71396 16.9519,-1.33171 16.9518,-1.33171 2.7841,-2.7836 2.783,-2.78359 8.0973,-4e-5 8.0967,4e-5 5.5926,5.59226 5.5922,5.59219 -0.3517,5.42107 -0.3521,5.42106 -2.6354,4.94848 -2.635,4.94841 -6.8644,1.42981 -6.864,1.42974 -10.4613,-4.18378 -10.4613,-4.18384 -44.0014,-0.51888 -44.0014,-0.51892 -50.4433,50.44286 -50.4426,50.44282 -28.8629,0.067 -28.8625,0.067 -79.2228,-79.22281 -79.2228,-79.22304 -57.2556,0.035 -57.2552,0.0354 -79.4153,-77.750168 -79.4154,-77.75038 -10.9212,-5.24936 -10.9211,-5.2494 -1.996,-5.33675 -1.9959,-5.33675 3.1225,-6.20828 3.1218,-6.20842 z"
       id="path43" /><path
       style="fill:#59c99c;fill-opacity:1;stroke-width:2.33259"
       d="m 4415.9542,-86.778778 7.2797,-2.96979 4.7963,2.87169 4.7963,2.8719 3.7912,9.36546 3.7915,9.36535 47.9123,49.40193 47.9123,49.40186 61.1638,-0.16973 61.1638,-0.16973 37.9051,37.90486 37.9044,37.904888 18.9645,0.099 18.9641,0.0993 61.0866,-61.086418 61.0862,-61.08645 140.3013,0.11735 140.3009,0.117 67.7914,-69.10829 67.791,-69.108332 4.1314,-9.26576 4.1316,-9.26573 7.1205,-2.90502 7.1205,-2.90499 3.8636,1.72086 3.864,1.72087 3.9242,3.92435 3.9245,3.92432 -0.2449,6.97282 -0.2483,6.97285 -5.1317,5.13198 -5.1323,5.13199 -4.1215,-0.002 -4.1218,-0.002 -71.7476,70.763582 -71.7472,70.7636101 -75.4371,0.43531 -75.4367,0.43528 -64.1067,0.7182 -64.1066,0.71824 -60.8108,60.8108099 -60.811,60.810838 -30.5119,-0.0636 -30.5121,-0.0639 -37.9221,-37.921828 -37.9215,-37.92165 -60.9944,0.034 -60.9941,0.034 -46.2711,-46.1279199 -46.2715,-46.1280901 -9.0348,-5.81029 -9.0341,-5.81025 -6.7351,-4.82858 -6.7354,-4.82862 0.4048,-5.6943 0.4047,-5.6942 2.6358,-4.31895 2.6354,-4.31908 z"
       id="path42" /><path
       style="fill:#59c99c;fill-opacity:1;stroke-width:2.33259"
       d="m 4159.6533,167.64917 h 6.5977 l 6.3422,6.34206 6.3419,6.34192 -0.2857,5.74618 -0.2857,5.7458 -2.9153,2.91512 -2.915,2.91499 -11.7433,6.4536 -11.7437,6.45359 -11.697,12.94161 -11.6977,12.94161 0.3558,17.70955 0.3564,17.70923 15.9413,17.79642 15.9413,17.79617 2.1429,9.07791 2.1432,9.07776 -0.5878,14.43431 -0.5874,14.43455 -3.2721,7.96851 -3.2722,7.96854 -4.2292,4.22939 -4.2297,4.22952 -3.3088,8.05858 -3.3089,8.05864 2.131,8.78865 2.1309,8.78831 7.6327,7.63272 7.6331,7.63275 4.5273,-0.42096 4.5272,-0.42078 6.1399,6.14005 6.1401,6.14006 -0.2857,5.74613 -0.2857,5.74584 -4.2711,4.27109 -4.2711,4.27095 -3.6943,1.64556 -3.6949,1.64546 -7.5103,-2.39046 -7.5106,-2.39064 -4.3426,-9.27273 -4.3429,-9.2727 -6.1371,-8.18562 -6.1368,-8.18582 -2.9299,-9.13776 -2.9296,-9.13798 0.3401,-9.03436 0.3401,-9.0344 2.5684,-7.79058 2.5684,-7.79054 7.6457,-10.48969 7.6456,-10.48961 0.9595,-8.93892 0.9589,-8.93903 -1.7194,-7.03598 -1.7198,-7.03632 -12.1269,-12.12697 -12.1267,-12.12685 -3.7636,-6.79074 -3.764,-6.7907 -1.2946,-11.88783 -1.2942,-11.88782 1.2929,-15.19871 1.2929,-15.19863 15.7297,-18.39289 15.7297,-18.39271 3.5045,-8.53575 3.5048,-8.53562 2.2724,-2.27271 2.2728,-2.27271 z"
       id="path41" /><path
       style="fill:#59c99c;fill-opacity:1;stroke-width:2.33259"
       d="m 4308.8002,18.723572 8.3293,-0.99487 4.263,5.97886 4.263,5.9789 5.7255,9.11899 5.7256,9.11903 92.1872,92.330838 92.1875,92.33091 0.1633,56.24577 0.1633,56.2458 77.2537,77.25356 77.2534,77.25361 0.6731,29.91965 0.6732,29.91949 3.5364,5.873 3.5368,5.8729 0.2483,7.1752 0.2483,7.1752 -4.7355,4.7356 -4.7357,4.7357 -8.097,-10e-5 h -8.0967 l -3.0072,-3.0068 -3.0068,-3.0067 -1.0823,-6.1451 -1.0827,-6.1452 3.8463,-10.0593 3.846,-10.0594 0.8388,-23.07769 0.8381,-23.07752 -77.7977,-77.79765 -77.7972,-77.79759 0.1904,-56.23461 0.1905,-56.23474 -91.7351,-89.69817 -91.7352,-89.698198 -9.9498,-6.54397 -9.95,-6.54393 -5.0436,-3.27758 -5.0436,-3.27762 0.2959,-5.95651 0.2959,-5.95652 3.8926,-5.83923 3.8929,-5.83917 z"
       id="path40" /><path
       style="fill:#59c99c;fill-opacity:1;stroke-width:2.33259"
       d="m 4488.6906,-162.61043 7.9613,-3.12407 11.8024,-10.10009 11.8018,-10.10013 4.6868,-3.09513 4.6865,-3.09495 17.5777,-0.49008 17.5777,-0.48993 5.1252,1.55028 5.1255,1.55019 14.0277,11.75874 14.0284,11.75891 14.4868,0.13572 14.4879,0.13571 52.0399,-52.03988 52.0399,-52.03991 67.7197,0.12483 67.7193,0.12449 113.9673,-115.29838 113.9673,-115.29833 5.0296,-9.99981 5.0297,-10.00002 4.7153,-2.16873 4.7157,-2.16873 6.4348,1.13362 6.4347,1.13365 2.8398,2.83975 2.8402,2.83992 0.5575,7.98007 0.5578,7.98011 -4.8589,5.03729 -4.8592,5.03725 -9.2222,5.62243 -9.2222,5.62247 -115.9717,113.83181 -115.9721,113.83181 -65.437,-0.0306 -65.4373,-0.0306 -52.1947,52.19464 -52.1947,52.19457 -20.8774,-0.69636 -20.877,-0.69617 -5.9824,-1.30855 -5.9823,-1.30838 -15.4808,-12.2067 -15.4807,-12.20654 -10.1382,-1e-4 -10.1382,7e-5 -11.8576,10.58934 -11.8579,10.58938 -3.6793,8.96073 -3.6796,8.96072 -4.6531,4.65324 -4.6531,4.65317 -6.2334,-1.09814 -6.2334,-1.09817 -4.6565,-4.65623 -4.6562,-4.65606 v -8.09712 -8.0969 l 2.2722,-2.00152 2.2721,-2.00144 z"
       id="path39" /><path
       style="fill:#59c99c;fill-opacity:1;stroke-width:2.33259"
       d="m 3978.6749,168.01896 7.1806,0.24116 2.5018,4.09579 2.5017,4.09592 4.0616,9.13351 4.0616,9.13352 5.3963,5.54148 5.3966,5.54161 1.764,5.44103 1.7646,5.44117 0.3164,17.25658 0.3163,17.25682 -2.0779,6.70972 -2.0779,6.70975 -8.5447,10.70751 -8.5442,10.70771 -1.4728,4.59208 -1.4725,4.59222 -0.6231,12.28021 -0.6228,12.28025 47.2371,47.23731 47.2372,47.23712 -0.034,112.14057 -0.034,112.14061 34.7237,34.5688 34.7238,34.5688 22.4584,19.7878 22.4577,19.7879 3.7724,-2e-4 h 3.7722 l 4.4357,4.4355 4.4351,4.4356 0.715,6.7983 0.7146,6.7982 -5.466,5.4661 -5.4667,5.4662 -8.6736,-0.652 -8.6735,-0.652 -3.3997,-5.1428 -3.4001,-5.143 -5.7429,-9.1013 -5.7435,-9.1014 -51.0689,-51.2112 -51.0678,-51.2128 0.034,-112.14059 0.034,-112.14058 -47.0732,-47.07299 -47.0728,-47.07317 0.2109,-17.10818 0.2109,-17.10835 2.1377,-10.69281 2.1378,-10.69302 5.1137,-5.14678 5.1139,-5.14695 4.7392,-8.38157 4.7388,-8.38188 v -12.17119 -12.1712 l -5.2633,-7.69425 -5.2633,-7.69428 -10.4089,-4.9528 -10.409,-4.95297 -3.234,-3.23407 -3.2341,-3.23415 0.2858,-5.746 0.2857,-5.74597 5.9908,-5.99111 5.9913,-5.99107 z"
       id="path38" /><path
       style="fill:#59c99c;fill-opacity:1;stroke-width:2.33259"
       d="m 4491.1811,-350.4103 8.097,1e-4 2.3105,2.31043 2.3106,2.31066 21.5478,1.19596 21.5482,1.196 69.9795,0.4397 69.9795,0.43959 32.5391,-1.52028 32.5383,-1.52042 3.0559,-3.05584 3.0558,-3.05585 7.7647,0.92749 7.7643,0.92729 4.4381,4.4382 4.4382,4.43834 -0.2313,7.40374 -0.2313,7.40374 -4.9984,4.99854 -4.999,4.99862 -5.4517,-0.32109 -5.4518,-0.32109 -8.2222,-3.32354 -8.2225,-3.32353 -58.6757,-1.39375 -58.6756,-1.39376 -46.6954,1.13726 -46.6949,1.13739 -15.0437,1.08991 -15.0437,1.09007 -2.9469,2.94687 -2.947,2.94686 -7.7643,-0.92753 -7.7644,-0.92728 -3.9759,-3.97606 -3.9759,-3.97599 -3e-4,-8.09714 v -8.09694 l 4.2738,-4.27344 4.2732,-4.2734 z"
       id="path37" /><path
       style="fill:#59c99c;fill-opacity:1;stroke-width:2.33259"
       d="m 3937.2718,128.86138 5.7463,0.28673 6.0548,6.05526 6.0558,6.05543 v 6.59754 6.59757 l -2.2728,2.27271 -2.2731,2.27271 -9.0776,3.6953 -9.078,3.69514 -35.2292,33.53907 -35.2286,33.5389 -0.034,63.97668 -0.034,63.97668 68.4727,68.47271 68.4731,68.47291 v 141.83359 141.8335 l 33.0275,33.0276 33.0275,33.0276 -0.1395,30.3747 -0.1394,30.3746 -35.6789,36.8945 -35.6789,36.8942 -2.4262,8.2317 -2.4266,8.2317 -6.6742,2.34079 -6.6742,2.3405 -6.5823,-1.8537 -6.5817,-1.8538 -2.5072,-7.12349 -2.5075,-7.1236 2.9765,-6.2058 2.9766,-6.2058 7.5351,-3.0674 7.5354,-3.0674 35.167,-33.6686 35.167,-33.6689 0.102,-19.3055 0.1021,-19.3054 -33.0466,-33.0466 -33.0465,-33.0464 V 650.09671 504.96396 l -68.4707,-68.47094 -68.4707,-68.47074 0.034,-71.74825 0.034,-71.74845 33.0401,-33.03981 33.0398,-33.03998 7.0245,-11.97283 7.0246,-11.97272 2.9626,-2.96265 2.9629,-2.96264 z"
       id="path36" /><path
       style="fill:#59c99c;fill-opacity:1;stroke-width:2.33259"
       d="m 4455.1012,-387.98951 11.962,-6.18125 13.3082,-13.10695 13.3083,-13.10685 82.4446,0.0238 82.4453,0.0238 30.7285,-30.72877 30.7288,-30.72884 23.5975,0.60626 23.5972,0.60637 6.5079,4.33827 6.5075,4.33847 13.6073,13.60747 13.6076,13.6075 6.3276,4.21833 6.3276,4.21851 17.5246,0.78797 17.5246,0.78789 127.7893,-129.63838 127.7888,-129.63854 4.9188,-8.2763 4.9187,-8.27646 3.365,-5.5093 3.366,-5.5093 h 8.4437 l 8.4439,-4e-5 4.9586,4.95889 4.9592,4.95895 -0.2313,7.19377 -0.2313,7.19388 -8.4953,6.34934 -8.495,6.3493 -135.9114,133.69413 -135.911,133.69427 -27.6278,0.0704 -27.6275,0.0704 -23.2515,-21.76475 -23.2516,-21.76479 -7.5524,-2.34349 -7.5528,-2.34349 -8.5328,0.28538 -8.5324,0.28538 -31.4155,30.39751 -31.416,30.39737 -82.251,-0.0238 -82.2514,-0.0238 -10.9991,10.99881 -10.9987,10.9988 -6.7123,12.77838 -6.7123,12.77838 -4.7793,2.19828 -4.7797,2.19835 -5.0408,-1.52606 -5.0405,-1.52621 -3.8647,-3.86486 -3.865,-3.86504 -1.0364,-5.88375 -1.0368,-5.88387 2.214,-3.65969 2.2143,-3.65966 z"
       id="path35" /><path
       style="fill:#59c99c;fill-opacity:1;stroke-width:2.33259"
       d="m 3903.0038,92.911372 8.0361,0.9598 3.6786,3.67864 3.6783,3.678638 0.9602,8.03684 0.9599,8.0368 -5.9443,4.29715 -5.945,4.29718 -8.3609,4.83405 -8.3613,4.83403 -47.8892,47.81048 -47.8899,47.81063 0.034,57.52819 0.034,57.52853 -37.5894,38.57898 -37.5888,38.57911 -1.4031,14.17063 -1.4027,14.17057 57.0389,57.03897 57.039,57.03882 0.1224,78.3795 0.1225,78.3793 -26.6424,26.6422 -26.6418,26.642 -4.1259,6.1883 -4.1255,6.1884 -0.8884,13.9507 -0.8888,13.9507 44.6579,44.6578 44.6578,44.658 0.4623,64.8471 0.4626,64.84679 4.2861,10.7175 4.286,10.7174 -2.2336,5.9725 -2.2337,5.9729 -6.8001,2.8166 -6.8007,2.8171 -6.0348,-2.2572 -6.0354,-2.2572 -2.2728,-6.4568 -2.2728,-6.4572 3.8993,-12.5852 3.9001,-12.5851 1.3398,-58.70389 1.3401,-58.7036 -44.7252,-44.8838 -44.7256,-44.8836 1.1218,-26.0935 1.1214,-26.0934 30.5027,-30.5552 30.5023,-30.5553 -0.034,-66.8001 -0.034,-66.8001 -56.495,-56.49503 -56.4954,-56.49519 -0.5875,-25.76632 -0.5881,-25.76614 38.1477,-38.14734 38.1472,-38.14731 -0.034,-57.20179 -0.034,-57.20163 49.5508,-51.58871 49.5515,-51.58855 4.7602,-8.43467 4.7606,-8.43487 3.4558,-5.137318 3.4551,-5.13753 z"
       id="path34" /><path
       style="fill:#59c99c;fill-opacity:1;stroke-width:2.33259"
       d="m 4416.5736,-424.86749 5.2885,-1.30943 27.987,-26.79462 27.9873,-26.79469 70.572,0.0272 70.5717,0.0272 37.9949,-37.99466 37.9946,-37.99465 22.0376,0.22959 22.0369,0.2296 5.4378,1.76807 5.4371,1.76795 6.7589,6.75907 6.7589,6.75887 7.9688,3.272 7.9685,3.27197 14.4552,0.5885 14.4552,0.58848 33.967,-33.96703 33.9669,-33.96697 0.095,-18.47717 0.095,-18.4773 4.9385,-7.92157 4.9385,-7.9215 17.1736,-17.25287 17.1736,-17.25284 7.864,-13.12833 7.8637,-13.12835 4.7946,-2.87077 4.7949,-2.87074 6.9086,2.86172 6.9092,2.8618 3.0848,6.15427 3.085,6.15431 -1.8721,6.71274 -1.8725,6.71253 -9.0636,3.21061 -9.0641,3.21074 -20.2202,18.28458 -20.2213,18.28459 -5.1453,7.52214 -5.1456,7.52214 -0.4044,19.9448 -0.4044,19.9448 -36.3242,36.32379 -36.3234,36.32375 -28.7778,-0.52739 -28.7778,-0.52742 -9.0538,-6.99951 -9.0539,-6.99949 -5.8065,-4.27333 -5.8068,-4.27327 -13.1648,0.1534 -13.1647,0.1534 -38.7486,37.79591 -38.7487,37.79591 -71.3697,0.0779 -71.3696,0.0779 -22.7148,24.59389 -22.7149,24.59403 -4.6102,9.82427 -4.6099,9.8245 -1.517,1.51702 -1.5171,1.51702 -8.097,7e-5 -8.097,-10e-5 -4.6561,-4.65609 -4.6562,-4.65624 -1.098,-6.23338 -1.0983,-6.23343 5.3164,-5.21749 5.3164,-5.2175 z"
       id="path33" /><path
       style="fill:#59c99c;fill-opacity:1;stroke-width:2.33259"
       d="m 3863.0119,57.935652 6.228,0.31089 4.9065,4.63626 4.9068,4.6363 1.6837,5.55995 1.6834,5.55995 -2.7582,4.60708 -2.7585,4.60688 -9.4433,3.71346 -9.4436,3.71347 -77.3375,76.056108 -77.3374,76.05604 0.1497,46.28772 0.1497,46.28775 -84.8964,85.0351 -84.8963,85.0351 -0.6269,23.28959 -0.6265,23.28981 51.7215,51.6555 51.7216,51.6554 22.3869,-1.308 22.3866,-1.3083 11.0134,-4.5467 11.0137,-4.5469 6.7187,2.7832 6.7188,2.783 3.0902,5.1608 3.0898,5.1609 -2.3378,7.3464 -2.3388,7.3466 -3.0136,3.0138 -3.0136,3.0136 -6.1528,1.084 -6.1528,1.0839 -8.0385,-4.6277 -8.0382,-4.6277 -28.8951,-0.8728 -28.8955,-0.8727 -55.0379,-55.038 -55.0379,-55.0379 0.061,-32.16163 0.061,-32.16192 85.8463,-85.84643 85.8464,-85.84643 -1.215,-44.96825 -1.215,-44.96809 71.9768,-72.08569 71.9768,-72.085738 9.8154,-13.27665 9.8148,-13.27657 4.1561,-5.80723 4.1562,-5.80682 z"
       id="path32" /><path
       style="fill:#59c99c;fill-opacity:1;stroke-width:2.33259"
       d="m 4382.6437,-462.09639 9.0103,-4.18537 39.9782,-38.09653 39.979,-38.09632 32.4332,0.0609 32.433,0.0609 18.9692,-19.02867 18.9695,-19.02867 12.9321,-15.97344 12.9318,-15.9734 3.734,-7.9646 3.7344,-7.96463 6.8963,-1.9378 6.8963,-1.93781 6.2137,2.98033 6.214,2.98047 1.931,6.87241 1.9309,6.87237 -2.8425,5.92608 -2.8422,5.9261 -11.294,5.77981 -11.294,5.77982 -31.5927,31.59238 -31.5922,31.59232 -33.0492,-0.12313 -33.0493,-0.12347 -39.8629,40.9572 -39.863,40.9574 -2.1857,6.64271 -2.1854,6.64285 -4.9568,2.96774 -4.9569,2.96792 -6.1728,-2.30842 -6.1729,-2.30859 -2.9986,-2.99874 -2.9987,-2.99863 -0.9276,-7.76445 -0.9275,-7.76449 3.7837,-3.39908 3.784,-3.39911 z"
       id="path31" /><path
       style="fill:#59c99c;fill-opacity:1;stroke-width:2.33259"
       d="m 3826.1494,22.502422 h 6.9242 l 5.7728,5.77284 5.7729,5.7729 v 6.92415 6.92417 l -6.2419,4.15269 -6.2416,4.15283 -11.7892,8.50854 -11.7892,8.50841 -104.0244,104.943778 -104.024,104.94398 -1.3245,9.28311 -1.3245,9.28293 -14.8376,17.43955 -14.8369,17.4395 -101.4083,101.57011 -101.4087,101.57014 0.102,19.26756 0.102,19.2674 56.7737,55.6472 56.7736,55.6472 h 4.1225 4.1218 l 5.0759,5.076 5.0759,5.076 1.0983,6.2334 1.0983,6.2334 -5.3198,5.2142 -5.3198,5.2143 -4.6262,0.6078 -4.6262,0.6076 -5.5354,-1.6882 -5.5361,-1.6879 -7.0382,-11.9966 -7.0385,-11.9965 -52.879,-52.8789 -52.8791,-52.8791 0.065,-30.5121 0.065,-30.51222 104.5884,-104.82259 104.5883,-104.82255 11.5379,-13.85077 11.5378,-13.85077 1.3623,-9.53579 1.3622,-9.5357 106.8588,-109.21204 106.8584,-109.212078 7.2793,-10.86425 7.2787,-10.86438 3.4677,-5.27756 3.4677,-5.27743 z"
       id="path30" /><path
       style="fill:#59c99c;fill-opacity:1;stroke-width:2.33259"
       d="m 4808.0957,-1014.1595 7.4038,0.231 4.9667,4.9667 4.9668,4.9668 -0.3415,7.081 -0.3412,7.08084 -3.2507,5.25379 -3.2511,5.25362 -1.3527,65.75857 -1.3527,65.75856 -82.9371,82.9368 -82.9368,82.93684 -46.0633,-0.55875 -46.0641,-0.55874 -92.1684,94.21266 -92.1689,94.21266 -5.0953,8.09984 -5.0949,8.10003 -3.8796,6.13995 -3.8793,6.14016 -6.9038,0.72562 -6.9031,0.72558 -6.2188,-6.219 -6.2194,-6.21917 -0.3164,-6.35271 -0.3163,-6.35284 5.8235,-4.1398 5.8232,-4.1399 9.1191,-5.72556 9.1191,-5.72553 95.7917,-95.64992 95.7917,-95.64994 45.0126,1.17066 45.012,1.17062 80.3166,-80.31642 80.3164,-80.3164 -0.3163,-31.84616 -0.3164,-31.8462 -1.2034,-26.83619 -1.2034,-26.83618 -3.7419,-11.51589 -3.7415,-11.51588 1.6548,-3.71602 1.6548,-3.7161 3.7014,-3.701 3.701,-3.7011 z"
       id="path29" /><path
       style="fill:#59c99c;fill-opacity:1;stroke-width:2.33259"
       d="m 3533.7084,191.56536 54.3923,0.0378 83.2409,-83.38577 83.2405,-83.385688 10.662,-14.07907 10.662,-14.0788999 4.9752,-6.63561 4.9755,-6.6357001 5.7484,0.29796 5.749,0.2983 5.2412,3.14854 5.2416,3.1485301 0.9098,7.61989 0.9103,7.62 -3.5572,5.2386199 -3.5572,5.23885 -8.4902,3.40531 -8.4902,3.40554 -94.2172,92.635978 -94.2171,92.63635 -53.958,-0.0374 -53.9579,-0.0371 -84.4341,84.43391 -84.4337,84.43393 1.1819,23.68147 1.182,23.68133 3.5004,12.0465 3.4997,12.0467 -1.9119,6.85996 -1.912,6.86017 -7.0388,1.98899 -7.0392,1.98903 -5.749,-2.75747 -5.749,-2.75744 -3.3041,-5.51821 -3.3042,-5.51855 2.6919,-6.28897 2.6915,-6.28897 2.2674,-5.97988 2.267,-5.97988 0.5738,-29.43849 0.5742,-29.43839 87.2749,-87.27484 87.2746,-87.27482 z"
       id="path28" /><path
       style="fill:#59c99c;fill-opacity:1;stroke-width:2.33259"
       d="m 3190.9629,361.82546 5.1769,-1.37712 30.9468,-28.47512 30.9473,-28.47514 137.8518,-137.62447 137.8509,-137.626378 72.7153,0.17007 72.7149,0.17007 27.204,-28.87528989 27.2043,-28.87525011 4.6419,-9.92784 4.6422,-9.92788 3.9266,-2.03454 3.9269,-2.03468 7.5902,0.90651 7.5905,0.9067 3.1511,3.15132 3.1513,3.15132 -3e-4,8.09705 3e-4,8.09701 -5.5177,5.51804 -5.5184,5.51787 -4.1215,-0.002 -4.1211,-0.002 -32.1948,31.14603 -32.1945,31.14612 -72.7051,0.12551 -72.7054,0.12551 -161.6929,162.980478 -161.6926,162.98047 -7.1381,11.67786 -7.1379,11.67772 -6.4296,0.32075 -6.429,0.32076 -6.3415,-6.34193 -6.3419,-6.34193 v -6.59757 -6.59758 l 2.9361,-2.83693 2.9357,-2.83693 z"
       id="path27" /><path
       style="fill:#59c99c;fill-opacity:1;stroke-width:2.33259"
       d="m 4594.7503,-1174.5015 5.2215,-2.2278 5.9266,2.2164 5.9266,2.2163 4.2007,10.0196 4.2004,10.0195 53.6572,55.2027 53.657,55.2027 0.1939,31.968 0.1972,31.96785 -102.4784,102.47834 -102.4785,102.47837 0.5548,27.21506 0.5548,27.21517 -98.4274,99.52158 -98.4271,99.52176 v 4.12245 4.12245 l -5.98,5.98016 -5.9806,5.98022 -7.4035,-0.2313 -7.4038,-0.23095 -4.5045,-4.50446 -4.5044,-4.5045 v -8.09714 -8.09694 l 2.1599,-2.11363 2.1615,-2.11199 10.1532,-4.6915 10.1528,-4.69171 95.5158,-94.16416 95.5155,-94.16435 -0.1667,-28.13491 -0.1667,-28.13504 102.3428,-102.34306 102.3434,-102.34297 -0.088,-22.542 -0.085,-22.5417 -54.9257,-53.5729 -54.9256,-53.5726 -7.2572,-2.8816 -7.2576,-2.8818 -3.0949,-5.1686 -3.0946,-5.1685 2.3082,-6.1729 2.3085,-6.1727 2.0881,-1.8802 2.0882,-1.8802 z"
       id="path26" /><path
       style="fill:#59c99c;fill-opacity:1;stroke-width:2.33259"
       d="m 3315.432,13.512372 30.5649,0.2983 8.4463,3.46833 8.4473,3.46837 5.7181,5.71845 5.7188,5.71845 6.0221,2.70431 6.0222,2.70451 19.077,0.45062 19.0774,0.45079 33.9857,-33.9859099 33.9857,-33.9857401 85.9031,0.1585 85.9031,0.15851 16.4968,-18.1405 16.4967,-18.14071 4.6375,-9.93212 4.6378,-9.9322 3.9265,-2.03468 3.927,-2.03468 7.5902,0.90671 7.5905,0.90651 3.1514,3.15132 3.151,3.15132 v 8.09721 8.09684 l -4.6561,4.65627 -4.6562,4.65606 -6.3021,1.11035 -6.3024,1.11042 -22.1876,20.29806 -22.188,20.29824 -85.2609,-0.0238 -85.261,-0.0238 -33.036,33.03621 -33.0363,33.03635 -27.1105,-0.10443 -27.1101,-0.10476 -8.6746,-3.5901 -8.6745,-3.59006 -7.2048,-7.20452 -7.2045,-7.20456 -12.9627,-1.59828 -12.9627,-1.59828 -13.6001,1.2293 -13.5998,1.22947 -63.872,63.87209 -63.8723,63.872218 -0.4017,19.82375 -0.4024,19.82374 -20.2645,22.46704 -20.2644,22.46669 -5.7263,9.11804 -5.7262,9.11814 -4.1586,5.80505 -4.1582,5.80519 -5.7221,-0.32313 -5.7222,-0.32313 -3.6422,-2.95557 -3.6422,-2.95554 -3.483,-3.86289 -3.4831,-3.8632 1.4677,-7.0472 1.4681,-7.04734 10.3654,-5.03549 10.3657,-5.03521 13.7219,-11.54034 13.7219,-11.54031 9.195,-11.60942 9.195,-11.60973 0.4013,-19.78789 0.401,-19.78779 67.5938,-67.593618 67.5931,-67.59345 z"
       id="path19" /><path
       style="fill:#59c99c;fill-opacity:1;stroke-width:2.33259"
       d="m 4475.2,-1199.9691 4.5364,-1.1962 4.7286,1.4318 4.7293,1.4319 4.4395,9.8756 4.4395,9.8757 57.8658,59.2412 57.8658,59.2412 0.1633,28.702 0.1633,28.7019 -82.5208,82.52074 -82.5205,82.52072 0.034,60.99419 0.034,60.99407 -70.0319,70.20006 -70.0316,70.20004 -9.2004,12.24215 -9.2001,12.24211 -4.9935,7.05347 -4.9936,7.05353 -7.1089,6e-5 -7.1083,7e-5 -5.4211,-6.43373 -5.4211,-6.43376 1.1711,-7.96096 1.1711,-7.96078 10.8735,-4.73525 10.8739,-4.73524 76.5721,-75.17209 76.5718,-75.17221 -0.1429,-61.13649 -0.1428,-61.13674 82.5378,-82.538 82.5385,-82.53796 -0.1021,-19.3209 -0.102,-19.321 -57.4189,-55.9349 -57.4189,-55.9349 -9.1109,-4.0844 -9.111,-4.0844 -2.2677,-4.9386 -2.268,-4.9388 1.5265,-5.0405 1.5259,-5.0406 3.869,-3.7701 3.8688,-3.7701 z"
       id="path18" /><path
       style="fill:#59c99c;fill-opacity:1;stroke-width:2.33259"
       d="m 2955.1489,165.55245 5.2256,-1.37229 35.8407,-33.4337 35.8408,-33.433488 88.3794,-88.1419299 88.3793,-88.1419301 55.2542,0.0357 55.2546,0.0357 19.8325,19.71732 19.8332,19.71735 5.5711,1.56511 5.5718,1.56512 13.0192,0.4897 13.0191,0.48956 7.1896,-1.4975 7.1895,-1.49749 23.8121,-22.59636 23.8124,-22.59635 90.4308,-0.39834 90.43,-0.39796 8.9589,-4.82828 8.9589,-4.82827 7.1079,-14.358802 7.1076,-14.35893 5.0082,-1.51628 5.0082,-1.51634 6.2116,1.09427 6.2123,1.09433 3.0062,3.00669 3.0071,3.00686 -3e-4,8.09701 3e-4,8.09704 -5.4884,5.382772 -5.4882,5.38267 -5.6232,0.77997 -5.6235,0.78015 -7.4109,7.41088 -7.411,7.41105 -11.128,3.93364 -11.1276,3.9335 -86.8998,0.0786 -86.9001,0.0786 -23.9542,23.95446 -23.955,23.95463 -32.2408,0.28504 -32.2407,0.28503 -21.5669,-21.56699 -21.5672,-21.56713 -47.0072,0.0418 -47.0069,0.0418 -111.2591,111.36781 -111.2588,111.367878 -9.1195,12.32276 -9.1191,12.32297 -4.2157,6.17879 -4.2157,6.17893 -6.9242,-2e-4 -6.9238,2e-4 -5.7732,-5.77287 -5.7725,-5.77284 v -6.59757 -6.59758 l 3.7606,-3.6617 3.7605,-3.66163 z"
       id="path17" /><path
       style="fill:#59c99c;fill-opacity:1;stroke-width:2.33259"
       d="m 3954.0304,-931.21084 6.2331,-1.09814 3.5929,3.64234 3.5925,3.64252 4.2211,8.9744 4.2205,8.97443 27.9815,28.12613 27.9816,28.12627 -0.1939,71.55564 -0.1939,71.55566 -18.9573,20.62806 -18.9577,20.62804 -2.22,8.24007 -2.2201,8.24011 -8.6545,3.0656 -8.6545,3.0655 -5.3695,-3.21502 -5.3701,-3.2152 -2.1915,-5.86067 -2.1915,-5.86056 2.2987,-6.14655 2.2983,-6.14672 10.8409,-5.10634 10.8406,-5.10613 16.1702,-14.20246 16.1702,-14.20247 0.1837,-64.19101 0.1836,-64.19081 -26.7471,-24.8662 -26.7472,-24.86621 -9.6821,-4.68018 -9.682,-4.68014 -2.9106,-2.86254 -2.9106,-2.86234 v -6.59761 -6.59754 l 5.4059,-5.4059 5.4058,-5.40586 z"
       id="path16" /><path
       style="fill:#59c99c;fill-opacity:1;stroke-width:2.33259"
       d="m 3139.3389,-249.48269 4.5895,-0.46595 11.6627,3.18186 11.6627,3.18183 48.2086,1.27301 48.2089,1.273 68.2037,0.24626 68.2033,0.2466 47.8946,-47.89474 47.895,-47.89491 20.3325,0.2847 20.3328,0.28469 6.7892,1.36702 6.7895,1.36689 5.8348,5.80175 5.8347,5.80172 7.8375,4.43027 7.8375,4.43059 9.6385,0.82983 9.6378,0.82994 9.694,-3.63806 9.694,-3.63792 4.9248,-4.97127 4.9252,-4.97127 1.766,-6.48077 1.7664,-6.48063 5.1834,-5.29848 5.183,-5.29852 7.7644,0.92743 7.7643,0.92732 3.5898,3.59003 3.5902,3.59009 0.2381,6.6888 0.2381,6.68877 -3.9704,6.20563 -3.9705,6.2054 -6.6184,1.37851 -6.6181,1.37859 -4.6102,4.57721 -4.6106,4.57743 -8.3327,4.71167 -8.3335,4.7115 -22.3335,0.40749 -22.3328,0.40779 -6.7664,-2.14175 -6.7661,-2.14158 -6.5721,-6.57217 -6.5722,-6.57196 -6.0582,-2.72054 -6.0582,-2.72053 -13.2161,-1.31158 -13.2158,-1.31178 -48.0569,48.05723 -48.0569,48.05708 -92.5225,-0.17823 -92.5219,-0.17823 -34.3122,1.65831 -34.3119,1.65883 -2.7572,2.75696 -2.7571,2.7571 -7.4035,-0.2313 -7.4038,-0.23129 -4.5045,-4.50446 -4.5044,-4.50453 -4e-4,-8.09701 4e-4,-8.09704 3.883,-3.88317 3.8834,-3.88316 z"
       id="path15" /><path
       style="fill:#59c99c;fill-opacity:1;stroke-width:2.33259"
       d="m 3719.9872,-863.70403 7.7644,-0.92742 4.1123,4.11211 4.1119,4.11228 1.3908,4.59324 1.3905,4.59331 -4.1187,9.61392 -4.1188,9.6142 -0.4177,20.58288 -0.4173,20.58294 26.5648,26.56493 26.5652,26.56513 -0.1768,43.01061 -0.1769,43.01078 38.6782,37.194 38.6776,37.19406 8.8916,3.06421 8.8915,3.06408 3.1779,6.30876 3.1776,6.30853 -2.3796,6.89927 -2.3796,6.89905 -8.1286,2.87951 -8.1294,2.87941 -5.6112,-3.35982 -5.6117,-3.36 -5.3867,-9.6525 -5.3868,-9.65263 -38.1861,-39.78777 -38.186,-39.7878 0.048,-40.78212 0.048,-40.78205 -26.2468,-26.24662 -26.2465,-26.24663 -0.5235,-28.56321 -0.5238,-28.56322 -3.431,-3.43088 -3.431,-3.43109 v -8.09714 -8.09688 l 3.9762,-3.97608 3.9759,-3.97599 z"
       id="path14" /><path
       style="fill:#59c99c;fill-opacity:1;stroke-width:2.33259"
       d="m 4044.1955,-1189.9514 8.097,10e-5 3.1514,3.1514 3.1514,3.1513 0.9272,7.7643 0.9276,7.7645 -2.312,2.312 -2.3119,2.312 -1.7986,22.2023 -1.799,22.2021 -0.3881,101.0494 -0.3885,101.04944 47.2419,47.24158 47.2413,47.24143 -0.4102,20.2222 -0.4102,20.22205 -2.4463,7.43482 -2.4466,7.43497 -6.9947,9.10283 -6.9946,9.10301 -2.1881,9.26929 -2.1881,9.26927 1.9983,8.24364 1.9983,8.24371 15.6723,15.66596 15.6726,15.66591 7.1881,2.26043 7.1885,2.26039 4.6956,4.69548 4.695,4.69538 -0.2483,6.97272 -0.2449,6.97288 -3.9395,3.93939 -3.9392,3.93932 -9.6429,-3e-5 -9.6423,1.3e-4 -2.4939,-2.49373 -2.4935,-2.49352 -2.833,-6.45326 -2.8334,-6.45318 -16.3046,-19.24048 -16.3045,-19.24049 -2.1953,-6.89714 -2.1952,-6.8971 0.5255,-15.73789 0.5255,-15.73786 2.4752,-7.77613 2.4748,-7.77615 5.963,-5.96318 5.9633,-5.96325 1.6966,-5.50855 1.697,-5.50845 1.2952,-12.72505 1.2946,-12.72508 -47.078,-47.07794 -47.0779,-47.07796 -0.5351,-98.71531 -0.535,-98.7154 -1.6561,-28.8297 -1.6562,-28.8296 -3.219,-3.2193 -3.2195,-3.2193 1.0983,-6.2334 1.098,-6.2334 4.6562,-4.6561 4.6561,-4.6562 z"
       id="path13" /><path
       style="fill:#59c99c;fill-opacity:1;stroke-width:2.33259"
       d="m 4293.9409,-1506.8055 4.7102,-1.2456 5.6358,2.5309 5.6354,2.5306 2.2881,7.1891 2.2882,7.1891 -2.5705,4.8881 -2.5707,4.8878 -1.4307,29.8605 -1.4303,29.8607 -0.5908,165.2206 -0.5905,165.2208 60.39,60.39 60.3904,60.39003 -0.061,30.51231 -0.065,30.51211 -34.6211,34.62098 -34.621,34.62098 0.034,69.24505 0.034,69.24506 -34.5565,34.74764 -34.5564,34.74765 -17.3314,20.01892 -17.3311,20.01909 v 3.71952 3.71959 l -4.6184,4.6183 -4.6181,4.61828 -6.514,-4e-5 -6.5137,10e-5 -5.2259,-3.1291 -5.2255,-3.12894 -1.4089,-6.76204 -1.4082,-6.76213 3.164,-5.28447 3.164,-5.2843 6.6463,-2.18209 6.6463,-2.18209 51.6685,-50.59412 51.6678,-50.59431 -0.102,-69.34554 -0.1021,-69.34542 34.6041,-34.60414 34.6043,-34.60415 0.099,-18.96425 0.099,-18.96418 -60.9821,-60.9821 -60.9822,-60.9821 -0.4068,-182.87 -0.4071,-182.8698 -1.8375,-18.9511 -1.8374,-18.9509 -2.1327,-2.1329 -2.133,-2.1329 0.2857,-5.7459 0.2857,-5.7461 4.8678,-4.7689 4.868,-4.7689 z"
       id="path12" /><path
       style="fill:#59c99c;fill-opacity:1;stroke-width:2.33259"
       d="m 4146.7073,-1505.6888 6.2279,0.3106 4.9072,4.6358 4.9072,4.6358 1.6837,5.56 1.6833,5.5602 -2.7581,4.6067 -2.7586,4.6073 -9.3718,3.7849 -9.3715,3.7854 -33.733,32.2428 -33.7326,32.243 -0.9442,22.9721 -0.9442,22.9718 35.7482,35.7482 35.7476,35.748 v 136.8848 l -0.034,136.8848 74.2432,74.24294 74.2432,74.24296 -0.1871,78.15604 -0.1871,78.15599 -35.6836,37.36865 -35.6833,37.36877 -3.2072,9.00001 -3.2075,8.99997 -5.8484,2.80534 -5.8487,2.80516 -6.8725,-1.93111 -6.8725,-1.93107 -2.9799,-6.21386 -2.9807,-6.21373 1.9524,-6.94925 1.9531,-6.94907 7.7436,-3.10329 7.7446,-3.10316 37.6357,-36.27688 37.6354,-36.27684 0.034,-67.08073 0.034,-67.0807 -75.0697,-75.06998 -75.0704,-75.06976 0.034,-136.8848 v -136.8848 l -34.616,-34.6164 -34.6166,-34.6166 -0.058,-33.8112 -0.058,-33.8114 31.2969,-31.4387 31.2972,-31.4389 5.7256,-9.1191 5.7255,-9.119 4.1395,-5.8235 4.1398,-5.8232 z"
       id="path11" /><path
       style="fill:#59c99c;fill-opacity:1;stroke-width:2.33259"
       d="m 2698.6973,-145.60783 5.7382,-2.78751 12.2024,4.6061 12.2022,4.60592 54.6073,0.6299 54.6069,0.63011 35.0153,35.01497 35.0149,35.015132 22.3768,0.39368 22.377,0.39371 45.5065,-45.506422 45.5066,-45.50628 161.6279,0.0102 161.628,0.0102 28.0903,-28.09028 28.0901,-28.09015 22.2641,0.0854 22.2638,0.0857 30.5601,30.56014 30.5602,30.56009 38.3609,-0.3998 38.3608,-0.3998 13.6774,-1.50725 13.677,-1.50719 2.5337,-2.5338 2.5337,-2.5338 6.3633,-0.59014 6.363,-0.59018 6.265,4.23732 6.2653,4.23708 v 8.46572 8.46569 l -3.9762,3.97602 -3.9759,3.97602 -7.7643,0.92742 -7.7647,0.92732 -2.9466,-2.94683 -2.947,-2.94679 -14.941,-1.19249 -14.9409,-1.1927 -42.5075,-0.37708 -42.5075,-0.37684 -30.2799,-29.25481 -30.2798,-29.25478 -7.344,-1.52519 -7.3439,-1.52488 -7.3447,1.52536 -7.3442,1.52552 -26.9635,25.83659 -26.9632,25.83662 -160.4334,0.74453 -160.4333,0.74436 -45.6892,45.688842 -45.6885,45.68883 -32.1619,-0.0602 -32.1618,-0.0605 -35.6394,-35.63926 -35.6391,-35.639292 -51.7712,1.61216 -51.7712,1.61195 -10.4916,3.78221 -10.492,3.78225 -5.2112,-3.12037 -5.212,-3.12047 -2.7102,-5.65804 -2.7102,-5.65828 2.9874,-6.90932 2.9868,-6.90927 z"
       id="path10" /><path
       style="fill:#59c99c;fill-opacity:1;stroke-width:2.33259"
       d="m 2831.8914,-343.8126 h 8.0976 l 1.5225,1.52287 1.5232,1.52301 3.6847,9.08852 3.685,9.08834 31.0588,32.71706 31.0591,32.71685 22.7298,0.0877 22.7295,0.0878 34.6891,-34.68888 34.6887,-34.6887 140.1839,0.0136 140.1842,0.0136 75.0697,-75.06998 75.0704,-75.07014 64.9529,0.19762 64.9537,0.19796 44.1912,42.41326 44.1915,42.41333 7.7878,2.60373 7.7879,2.60394 3.9452,3.94496 3.9446,3.945 v 8.09722 8.09687 l -3.2473,3.24717 -3.247,3.24731 -9.6776,0.83327 -9.678,0.83328 -5.732,-7.69031 -5.7317,-7.69058 -6.6698,-9.8243 -6.6694,-9.82427 -35.3813,-35.57905 -35.3812,-35.57926 -55.2543,0.036 -55.2542,0.036 -74.2119,74.21228 -74.2122,74.21211 -140.1842,-0.0136 -140.1839,-0.0136 -35.5003,35.50018 -35.4999,35.50007 -32.1622,-0.0606 -32.1612,-0.0605 -30.5241,-30.44466 -30.5237,-30.44465 -8.3763,-4.81889 -8.3762,-4.81888 -6.7943,-5.17365 -6.7936,-5.17379 1.1442,-6.49533 1.1442,-6.49526 4.6562,-4.65613 4.6562,-4.65623 z"
       id="path9" /><path
       style="fill:#59c99c;fill-opacity:1;stroke-width:2.33259"
       d="m 3623.6003,-1135.5214 8.097,10e-5 1.5228,1.5229 1.5232,1.523 3.5548,8.6566 3.5541,8.6567 15.1181,17.0795 15.1179,17.0795 7.5419,5.159 7.5415,5.159 23.1815,0.3572 23.1815,0.3573 35.8721,35.872 35.8717,35.87176 0.4603,19.42803 0.4598,19.4282 -2.1497,6.75778 -2.1503,6.75781 -8.2215,8.2215 -8.2215,8.2215 -2.9014,6.38482 -2.9017,6.38478 -0.1497,17.17005 -0.1497,17.17019 34.7065,34.70649 34.7064,34.70637 -0.1565,79.30288 -0.1564,79.30286 24.6845,23.27714 24.6846,23.27711 7.4868,1.55947 7.4865,1.55954 3.7888,6.82846 3.7888,6.82846 -2.4422,6.9619 -2.4425,6.96169 -8.1287,2.87955 -8.1293,2.87934 -5.5814,-3.34193 -5.5816,-3.34176 -2.9327,-7.20656 -2.933,-7.20633 -24.9894,-26.50309 -24.989,-26.50295 0.034,-78.80962 0.034,-78.80978 -35.5135,-35.51342 -35.5136,-35.51357 0.2211,-25.34342 0.2211,-25.34342 1.7027,-5.21284 1.7021,-5.21263 11.2779,-14.47475 11.2774,-14.47479 v -9.95842 -9.95866 l -7.511,-10.0024 -7.5109,-10.00254 -24.4288,-24.6697 -24.4288,-24.6698 -23.1682,-0.5951 -23.1683,-0.5953 -7.5191,-5.3874 -7.5191,-5.3874 -14.077,-13.9623 -14.0777,-13.9622 -8.3762,-4.8189 -8.3766,-4.8189 -6.7936,-5.1737 -6.7943,-5.1738 1.1445,-6.4953 1.1446,-6.4953 4.6562,-4.6561 4.6561,-4.6562 z"
       id="path8" /><path
       style="fill:#59c99c;fill-opacity:1;stroke-width:2.33259"
       d="m 3287.8793,-796.13196 27.504,0.7546 83.6171,83.61716 83.617,83.61698 50.8097,-0.0398 50.8099,-0.0398 84.3392,83.23274 84.3389,83.2326 4.1224,-9.9e-4 4.1222,-0.001 6.148,6.14795 6.148,6.14798 -0.9527,7.97615 -0.9527,7.97633 -5.1749,3.21483 -5.1749,3.21479 -8.1854,-0.46633 -8.1851,-0.46637 -3.4341,-5.10868 -3.4344,-5.10869 -4.8514,-8.34337 -4.8517,-8.34334 -78.3269,-78.40558 -78.3265,-78.40555 -51.0916,0.0401 -51.091,0.0398 -83.3429,-83.34266 -83.3425,-83.34253 -16.1811,-1.08096 -16.1811,-1.08086 -62.3492,62.34918 -62.3495,62.34935 0.668,22.91023 0.668,22.91041 3.9712,10.27209 3.9718,10.27197 -1.0827,6.14515 -1.0827,6.14509 -3.469,3.46901 -3.4691,3.46901 -7.4035,-0.23095 -7.4038,-0.2313 -4.5378,-4.53796 -4.5385,-4.53797 -1.4564,-4.81178 -1.4569,-4.81177 4.8045,-8.34562 4.8048,-8.34572 0.68,-30.23901 0.6802,-30.23897 65.1754,-65.17542 65.1754,-65.17561 z"
       id="path7" /><path
       style="fill:#59c99c;fill-opacity:1;stroke-width:2.33259"
       d="m 3674.4872,-1271.3597 5.5153,0.415 2.9507,0.8217 2.9504,0.8218 4.4021,9.9688 4.4024,9.9689 101.659,102.8659 101.6588,102.8658 0.1326,28.7309 0.1327,28.7308 -18.6431,18.64302 -18.6426,18.64302 -3.0256,7.58969 -3.0252,7.58963 0.2653,12.88569 0.2653,12.88572 4.9151,7.88436 4.915,7.88435 18.9396,19.01864 18.9396,19.01867 -0.1497,90.84452 -0.1496,90.84446 15.6559,14.22141 15.6563,14.22142 7.2409,1.50835 7.2412,1.50817 3.8245,5.97781 3.8249,5.97767 -0.3334,3.59571 -0.3333,3.59568 -3.1949,5.33607 -3.195,5.33593 -9.5926,0.82606 -9.5926,0.82589 -3.5398,-3.58938 -3.5395,-3.58942 -4.2208,-8.97443 -4.2208,-8.97444 -13.9586,-14.10345 -13.9586,-14.10349 0.034,-90.69416 0.034,-90.69417 -23.9601,-23.95994 -23.9597,-23.96007 0.065,-30.51214 0.065,-30.51221 19.4311,-19.43126 19.4311,-19.43129 2.1123,-6.7957 2.1123,-6.79579 -0.1973,-14.5398 -0.1973,-14.5397 -100.2818,-98.8422 -100.2812,-98.842 -10.9712,-5.5229 -10.9712,-5.5228 -1.0881,-7.1588 -1.0888,-7.1587 6.0273,-7.0092 6.0266,-7.0091 z"
       id="path6" /><path
       style="fill:#59c99c;fill-opacity:1;stroke-width:2.33259"
       d="m 3374.1733,-1011.817 8.4657,10e-5 3.08,3.08 3.0799,3.0803 20.3604,1.3918 20.3597,1.3917 16.3733,-0.9452 16.3729,-0.9454 81.9235,81.92317 81.9232,81.92323 -0.1122,54.50553 -0.1123,54.50534 99.6301,98.61722 99.6305,98.61719 4.7793,0.44296 4.7793,0.443 5.6177,6.65533 5.6174,6.65523 -1.1201,7.60955 -1.1197,7.60976 -6.1422,3.07081 -6.1419,3.07098 -7.8018,-1.13195 -7.8028,-1.13191 -2.9731,-7.67701 -2.9735,-7.67721 -100.1604,-101.26412 -100.1604,-101.26407 0.034,-55.8807 0.037,-55.88053 -77.717,-77.71694 -77.717,-77.71694 -29.2588,0.53623 -29.2588,0.53633 -8.664,3.60017 -8.6647,3.60003 -5.4521,0.32109 -5.4514,0.32109 -4.5102,-4.50973 -4.5099,-4.50981 -0.5898,-6.36301 -0.5902,-6.36305 4.2371,-6.26526 4.2375,-6.2651 z"
       id="path5" /><path
       style="fill:#59c99c;fill-opacity:1;stroke-width:2.33259"
       d="m 2833.772,-497.89966 7.4038,0.2313 1.7361,1.73579 1.7354,1.73567 41.2714,1.22779 41.2715,1.22763 155.6319,0.23572 155.632,0.23538 58.5866,-58.53348 58.5862,-58.53371 26.0934,-1.1214 26.0934,-1.12158 38.2245,38.22422 38.2238,38.22397 59.3441,-0.0344 59.3434,-0.0343 35.5567,35.40157 35.5568,35.40178 22.4577,19.78775 22.4583,19.7878 h 3.7722 l 3.7721,1.7e-4 4.6933,4.69317 4.6936,4.69337 v 8.09684 l 3e-4,8.09704 -3.2477,3.24731 -3.2469,3.24717 -9.6164,0.82787 -9.6168,0.82796 -5.8079,-7.67033 -5.8082,-7.67 -16.5481,-19.73861 -16.5481,-19.73861 -34.5581,-34.74976 -34.5585,-34.74956 -60.7301,0.034 -60.7305,0.034 -37.804,-36.71566 -37.8041,-36.71549 -6.3831,-1.8638 -6.3834,-1.86382 -10.4341,-0.28674 -10.4344,-0.28674 -59.3434,59.34335 -59.3433,59.34331 -176.2135,0.51881 -176.2138,0.51865 -23.673,1.44089 -23.673,1.44056 -2.7003,2.70009 -2.6997,2.69986 h -6.5977 -6.5977 l -5.7728,-5.77291 -5.7732,-5.77284 v -6.59758 -6.59757 l 4.6609,-4.66069 4.6606,-4.66069 z"
       id="path4" /><path
       style="fill:#59c99c;fill-opacity:1;stroke-width:2.33259"
       d="m 3070.1628,-794.28779 4.782,-1.2659 22.3217,-19.46299 22.3219,-19.46321 38.0109,-37.88901 38.0112,-37.88904 71.7483,0.0272 71.7482,0.0272 108.1948,108.19467 108.1945,108.19459 17.3893,-0.48477 17.3893,-0.48483 99.4631,98.36905 99.4631,98.3693 4.1225,-0.001 4.1221,-9.9e-4 6.148,6.14795 6.1484,6.14794 -0.9531,7.9762 -0.952,7.97629 -5.2419,3.14833 -5.2409,3.14853 -5.7987,0.30068 -5.7983,0.30068 -5.4953,-7.71826 -5.4949,-7.71806 -6.8419,-9.65233 -6.8419,-9.65226 -90.6937,-90.93488 -90.694,-90.93467 -16.9035,1.2397 -16.9039,1.2397 -108.3687,-108.36872 -108.3686,-108.36889 -61.8519,0.0306 -61.8519,0.0306 -51.8688,52.0108 -51.8675,52.01264 -5.7432,9.10117 -5.7436,9.10134 -3.4858,5.2591 -3.486,5.25909 -6.9243,-1.4e-4 -6.9242,1.7e-4 -5.7728,-5.77287 -5.7728,-5.77291 v -6.59754 -6.59757 l 3.7605,-3.66167 3.7606,-3.66163 z"
       id="path3" /></g></svg>
